<svg width="33" height="32" xmlns="http://www.w3.org/2000/svg" version="1.1">
 <title>bladeborn-mollog</title>

 <g>
  <title>Layer 1</title>
  <path id="svg_1" d="m17.607,29.553c0,-0.718 0,-1.439 0,-2.157c0,-0.248 0.049,-0.406 0.346,-0.436c0.467,-0.04 0.896,-0.122 1.309,-0.245l-0.046,0.012c1.661,-0.515 3.213,-1.244 4.446,-2.522c0.671,-0.634 1.286,-1.309 1.849,-2.027l0.03,-0.04c0.609,-0.868 1.203,-1.781 1.289,-2.897c0.639,-1.173 0.549,-2.45 0.552,-3.717c-0.028,-1.778 -0.52,-3.436 -1.359,-4.864l0.025,0.047c-0.608,-1.157 -1.371,-2.143 -2.277,-2.977l-0.008,-0.007c-1.315,-1.176 -2.751,-2.161 -4.54,-2.495c-0.34,-0.086 -0.629,-0.185 -0.907,-0.304l0.039,0.015c-0.725,-0.252 -0.733,-0.256 -0.733,-0.943c0,-1.221 0,-2.439 0,-3.66c0.021,-0.126 0.055,-0.238 0.101,-0.343l-0.004,0.009c0.074,0.087 0.141,0.184 0.198,0.288l0.005,0.009c0.293,0.643 0.613,1.274 0.846,1.939c0.088,0.368 0.379,0.649 0.746,0.721l0.006,0.001c0.653,0.165 1.202,0.349 1.734,0.568l-0.084,-0.031c1.251,0.484 2.332,1.103 3.302,1.859l-0.029,-0.021c0.228,0.203 0.53,0.326 0.86,0.326c0.171,0 0.333,-0.033 0.483,-0.093l-0.009,0.003c0.41,-0.132 0.819,-0.252 1.233,-0.376c0.037,-0.016 0.079,-0.026 0.124,-0.026c0.174,0 0.316,0.141 0.316,0.316c0,0.046 -0.01,0.09 -0.027,0.129l0.001,-0.002c-0.143,0.5 -0.289,0.996 -0.466,1.503c-0.042,0.115 -0.066,0.247 -0.066,0.386c0,0.309 0.121,0.591 0.318,0.799l0,-0.001c0.661,0.823 1.195,1.782 1.551,2.824l0.02,0.066c0.286,0.966 0.714,1.879 0.729,2.924c0,0.376 0.271,0.53 0.579,0.654c0.793,0.312 1.59,0.631 2.386,0.951c0.063,0.03 0.115,0.059 0.165,0.09l-0.007,-0.004c-0.045,0.075 -0.075,0.188 -0.143,0.222q-0.857,0.436 -1.725,0.846c-0.185,0.091 -0.411,0.182 -0.644,0.259l-0.04,0.011c-0.451,0.143 -0.545,0.455 -0.601,0.913c-0.01,0.647 -0.163,1.255 -0.428,1.799l0.011,-0.025c-0.019,0.023 -0.035,0.049 -0.048,0.077l-0.001,0.002c-0.342,1.567 -1.225,2.864 -2.116,4.134c-0.122,0.151 -0.196,0.346 -0.196,0.557c0,0.077 0.01,0.152 0.028,0.223l-0.001,-0.006c0.128,0.564 0.218,1.127 0.376,1.695c0.094,0.297 -0.03,0.327 -0.233,0.301c-0.363,-0.031 -0.697,-0.098 -1.017,-0.201l0.032,0.009c-0.613,-0.218 -1.127,-0.353 -1.755,0.124c-0.963,0.765 -2.086,1.381 -3.305,1.789l-0.077,0.022c-0.376,0.113 -0.752,0.237 -1.127,0.327c-0.375,0.067 -0.673,0.336 -0.78,0.688l-0.002,0.007c-0.229,0.797 -0.68,1.503 -0.966,2.255c-0.026,0.057 -0.056,0.107 -0.091,0.152l0.001,-0.002c-0.041,-0.064 -0.12,-0.132 -0.12,-0.195c0,-0.752 0,-1.503 0,-2.255l-0.058,0.021z" />
  <path id="svg_2" d="m14.837,2.39c0,0.688 0,1.375 0,2.063c0,0.263 -0.101,0.346 -0.376,0.421c-1.208,0.297 -2.223,0.627 -3.206,1.019l0.162,-0.057c-0.732,0.379 -1.363,0.796 -1.944,1.271l0.02,-0.016c-2.239,1.696 -3.794,4.192 -4.239,7.056l-0.008,0.061c-0.1,0.481 -0.158,1.033 -0.158,1.599c0,0.15 0.004,0.299 0.012,0.448l-0.001,-0.021c0.054,1.397 0.337,2.712 0.814,3.93l-0.028,-0.082c0.722,1.741 1.808,3.204 3.17,4.349l0.017,0.014c1.191,0.962 2.458,1.808 3.984,2.172c0.474,0.113 0.943,0.248 1.424,0.323c0.278,0.045 0.376,0.158 0.376,0.417c0,0.722 0,1.439 0,2.157c0,0.658 0,1.315 0,1.973c-0.024,0.12 -0.06,0.227 -0.109,0.327l0.003,-0.008c-0.073,-0.088 -0.139,-0.186 -0.195,-0.291l-0.005,-0.009c-0.271,-0.643 -0.53,-1.285 -0.793,-1.932c-0.154,-0.404 -0.514,-0.697 -0.949,-0.751l-0.006,-0.001c-0.969,-0.245 -1.819,-0.582 -2.609,-1.013l0.058,0.029c-0.935,-0.451 -1.741,-0.984 -2.465,-1.609l0.014,0.012c-0.101,-0.106 -0.243,-0.172 -0.401,-0.172c-0.097,0 -0.188,0.025 -0.267,0.069l0.003,-0.001c-0.511,0.203 -1.056,0.316 -1.571,0.515c-0.263,0.101 -0.353,0.041 -0.316,-0.203c0.059,-0.506 0.154,-0.963 0.285,-1.403l-0.015,0.058c0.059,-0.167 0.093,-0.359 0.093,-0.559c0,-0.382 -0.123,-0.735 -0.333,-1.021l0.003,0.005c-0.491,-0.692 -0.934,-1.48 -1.291,-2.314l-0.032,-0.083c-0.323,-0.909 -0.804,-1.781 -0.8,-2.807c0.003,-0.034 0.005,-0.074 0.005,-0.114c0,-0.579 -0.401,-1.063 -0.94,-1.192l-0.008,-0.002c-0.545,-0.179 -0.997,-0.363 -1.432,-0.575l0.068,0.03c-0.152,-0.055 -0.284,-0.126 -0.403,-0.213l0.004,0.003c-0.156,-0.132 -0.297,-0.267 -0.429,-0.41l-0.003,-0.003c0.152,-0.121 0.323,-0.234 0.504,-0.333l0.019,-0.009c0.703,-0.304 1.413,-0.586 2.116,-0.887c0.165,-0.068 0.327,-0.12 0.338,-0.376c0.023,-0.461 0.09,-0.894 0.198,-1.312l-0.01,0.045c0.128,-0.496 0.319,-0.97 0.485,-1.454c0.458,-1.332 1.085,-2.486 1.871,-3.513l-0.022,0.03c0.204,-0.213 0.33,-0.502 0.33,-0.821c0,-0.179 -0.04,-0.349 -0.111,-0.502l0.003,0.007c-0.136,-0.385 -0.243,-0.838 -0.301,-1.305l-0.003,-0.032c-0.053,-0.308 0.071,-0.376 0.432,-0.289c0.564,0.128 1.127,0.263 1.699,0.376c0.022,0.003 0.048,0.004 0.074,0.004c0.124,0 0.24,-0.034 0.339,-0.092l-0.003,0.002c0.319,-0.18 0.62,-0.398 0.936,-0.582c1.049,-0.613 2.037,-1.349 3.296,-1.53c0.425,-0.083 0.802,-0.213 1.154,-0.388l-0.026,0.012c0.154,-0.083 0.273,-0.213 0.34,-0.371l0.002,-0.005c0.334,-0.789 0.643,-1.59 0.966,-2.383c0.03,-0.055 0.065,-0.102 0.105,-0.143l0,0c0.038,0.075 0.105,0.15 0.105,0.229c0,0.718 0,1.439 0,2.157l-0.019,0.006z" />
  <path id="svg_3" d="m16.163,13.871l-4.784,0c-0.084,0.014 -0.18,0.021 -0.278,0.021s-0.194,-0.008 -0.288,-0.023l0.01,0.001c-0.205,-0.055 -0.376,-0.175 -0.494,-0.336l-0.002,-0.002c-0.008,-0.035 -0.013,-0.076 -0.013,-0.117c0,-0.145 0.056,-0.277 0.148,-0.375l0,0c0.4,-0.409 0.836,-0.78 1.305,-1.108l0.03,-0.02c0.496,-0.315 1.069,-0.603 1.669,-0.834l0.067,-0.023c0.413,-0.132 0.756,-0.386 0.996,-0.72l0.004,-0.006c0.347,-0.585 0.968,-0.974 1.681,-0.992l0.003,0c0.021,-0.001 0.045,-0.001 0.07,-0.001c0.464,0 0.884,0.19 1.185,0.497l0,0c0.207,0.217 0.424,0.418 0.652,0.606l0.013,0.01c0.245,0.21 0.526,0.387 0.832,0.518l0.021,0.008c1.082,0.418 2.015,0.978 2.833,1.669l-0.015,-0.012c0.049,0.041 0.086,0.094 0.135,0.132c0.141,0.12 0.229,0.297 0.229,0.495c0,0.093 -0.019,0.181 -0.054,0.26l0.002,-0.004c-0.09,0.271 -0.334,0.331 -0.609,0.327c-0.782,0 -1.563,0 -2.345,0l-3.003,0.029z" />
  <path id="svg_4" d="m15.927,22.875c-0.567,0 -1.003,0 -1.439,0c-0.156,-0.033 -0.286,-0.121 -0.375,-0.242l-0.001,-0.002c-0.026,-0.03 0.071,-0.218 0.154,-0.282c0.328,-0.26 0.537,-0.658 0.537,-1.105c0,-0.07 -0.005,-0.139 -0.015,-0.207l0.001,0.008c-0.038,-1.218 0,-2.435 0,-3.649c0,-0.534 0,-0.541 0.5,-0.552c0.56,0 1.127,0 1.684,0s0.609,0.105 0.519,0.718c-0.024,0.232 -0.038,0.501 -0.038,0.774c0,0.124 0.003,0.248 0.009,0.371l-0.001,-0.017c0,0.718 0,1.436 0,2.153c-0.004,0.043 -0.007,0.094 -0.007,0.145c0,0.436 0.176,0.832 0.461,1.118l0,0c0.139,0.143 0.376,0.259 0.241,0.537s-0.376,0.056 -0.522,0.116c-0.605,0.237 -1.229,0.06 -1.706,0.116l-0.002,0z" />
  <path id="svg_5" d="m16.186,14.39c0.248,0 0.496,0 0.752,0c0.616,0 0.601,0 0.752,0.609c0.079,0.213 0.174,0.396 0.288,0.566l-0.006,-0.01c0.184,0.376 0,0.808 -0.376,0.729c-1.045,-0.229 -2.116,0.214 -3.146,-0.165c-0.301,-0.113 -0.376,-0.293 -0.165,-0.511c0.216,-0.172 0.353,-0.435 0.353,-0.73c0,-0.029 -0.001,-0.057 -0.004,-0.085l0,0.004c-0.041,-0.346 0.165,-0.417 0.459,-0.41c0.346,0.011 0.718,0.004 1.094,0.004l-0.001,-0.001z" />
 </g>
</svg>