<svg width="33" height="32" xmlns="http://www.w3.org/2000/svg" version="1.1">
 <title>bladeborn-hrothgorn</title>

 <g>
  <title>Layer 1</title>
  <path id="svg_1" d="m33.132,15.902c-0.052,0.036 -0.113,0.073 -0.176,0.105l-0.009,0.004c-0.649,0.275 -1.358,0.4 -1.92,0.879c-0.102,0.083 -0.306,0.034 -0.449,0.083c-0.547,0.115 -0.961,0.568 -1.014,1.127l0,0.005c-0.299,2.215 -1.178,4.183 -2.477,5.799l0.018,-0.023c-0.162,0.157 -0.263,0.376 -0.263,0.619c0,0.105 0.019,0.206 0.054,0.3l-0.002,-0.006c0.155,0.483 0.094,1.038 0.411,1.509c0.045,0.068 0.023,0.181 0.026,0.275c0,0.291 -0.087,0.377 -0.377,0.291c-0.474,-0.087 -0.891,-0.206 -1.29,-0.36l0.049,0.017c-0.165,-0.087 -0.361,-0.139 -0.569,-0.139c-0.375,0 -0.712,0.167 -0.939,0.431l-0.001,0.002c-0.362,0.368 -0.801,0.658 -1.292,0.844l-0.025,0.008c-0.487,0.185 -0.845,0.566 -1.415,0.649c-0.752,0.172 -1.414,0.42 -2.031,0.743l0.046,-0.022c-0.189,0.089 -0.338,0.236 -0.428,0.417l-0.002,0.005c-0.336,0.724 -0.634,1.468 -0.962,2.196c-0.034,0.075 -0.181,0.098 -0.275,0.147c-0.03,-0.083 -0.109,-0.185 -0.087,-0.241c0.264,-0.611 0.109,-1.188 0,-1.811c-0.043,-0.414 -0.067,-0.895 -0.067,-1.382c0,-0.341 0.012,-0.679 0.035,-1.014l-0.003,0.045c0,-0.396 0.377,-0.4 0.604,-0.472c0.581,-0.189 1.211,-0.245 1.777,-0.468c1.223,-0.469 2.279,-1.07 3.228,-1.802l-0.029,0.022c1.121,-0.919 2.067,-2.002 2.813,-3.219l0.032,-0.055c0.151,-0.235 0.285,-0.505 0.39,-0.789l0.009,-0.029c0.287,-0.807 0.566,-1.622 0.819,-2.441c0.084,-0.271 0.135,-0.583 0.14,-0.907l0,-0.003c0.023,-0.69 0,-1.381 0,-2.071c0,-0.001 0,-0.003 0,-0.005c0,-0.841 -0.162,-1.645 -0.457,-2.381l0.015,0.043c-0.192,-0.513 -0.23,-1.071 -0.502,-1.573c-0.701,-1.411 -1.584,-2.617 -2.639,-3.65l-0.002,-0.002c-0.787,-0.741 -1.691,-1.371 -2.678,-1.858l-0.064,-0.029c-0.838,-0.432 -1.817,-0.723 -2.853,-0.813l-0.03,-0.002c-0.279,0 -0.377,-0.128 -0.404,-0.377s-0.162,-0.411 -0.162,-0.619c0,-1.192 0,-2.388 0,-3.58c0.03,-0.12 0.077,-0.226 0.138,-0.321l-0.002,0.004c0.106,0.087 0.257,0.151 0.306,0.26c0.283,0.645 0.558,1.298 0.807,1.958c0.16,0.408 0.527,0.702 0.968,0.754l0.006,0.001c1.672,0.39 3.133,1.124 4.366,2.128l-0.02,-0.015c0.622,0.494 1.256,0.732 2.041,0.306c0.328,-0.131 0.711,-0.23 1.108,-0.281l0.023,-0.002c0.279,0.377 -0.034,0.709 -0.098,1.056c-0.07,0.299 -0.161,0.56 -0.275,0.807l0.011,-0.026c-0.07,0.133 -0.111,0.29 -0.111,0.457c0,0.26 0.099,0.497 0.262,0.675l-0.001,-0.001c0.702,0.87 1.266,1.886 1.64,2.991l0.02,0.069c0.337,0.794 0.601,1.719 0.746,2.682l0.008,0.065c0.038,0.42 0.324,0.765 0.71,0.888l0.007,0.002c0.864,0.321 1.713,0.687 2.565,1.034c0.019,0.008 0.091,0.053 0.2,0.087l0.002,0z" fill="#000000"/>
  <path id="svg_2" d="m14.887,31.996c-0.124,-0.06 -0.204,-0.079 -0.207,-0.102c-0.068,-0.902 -0.724,-1.562 -0.973,-2.388c0,-0.026 0,-0.072 0,-0.091c-0.117,-0.128 -0.215,-0.321 -0.377,-0.377c-0.777,-0.275 -1.588,-0.464 -2.343,-0.792c-0.8,-0.33 -1.489,-0.717 -2.124,-1.175l0.03,0.021c-1.336,-0.992 -1.309,-1.022 -2.894,-0.536c-0.223,0.068 -0.558,0.2 -0.672,0.102c-0.223,-0.196 -0.098,-0.502 0.03,-0.755c0.072,-0.162 0,-0.396 0.091,-0.543c0.464,-0.796 0.151,-1.509 -0.302,-2.116c-0.719,-1.045 -1.3,-2.255 -1.679,-3.551l-0.022,-0.089c-0.132,-0.416 -0.233,-0.905 -0.284,-1.409l-0.003,-0.032c-0.087,-0.698 -0.291,-1.026 -0.962,-1.17s-1.264,-0.577 -1.886,-0.883c-0.109,-0.057 -0.207,-0.128 -0.309,-0.189c0.096,-0.117 0.207,-0.216 0.33,-0.298l0.006,-0.003c0.377,-0.185 0.792,-0.332 1.185,-0.513c0.525,-0.226 0.955,-0.445 1.371,-0.686l-0.061,0.033c0.166,-0.119 0.28,-0.3 0.309,-0.509l0,-0.004c0.187,-1.29 0.516,-2.452 0.978,-3.546l-0.035,0.094c0.415,-1.056 1.102,-1.92 1.702,-2.845c0.089,-0.116 0.143,-0.264 0.143,-0.424c0,-0.121 -0.031,-0.235 -0.084,-0.334l0.002,0.004c-0.167,-0.447 -0.313,-0.981 -0.413,-1.532l-0.009,-0.06c-0.072,-0.336 0.049,-0.411 0.415,-0.317c0.268,0.064 0.532,0.14 0.8,0.211c1.132,0.309 1.509,0.234 2.445,-0.49c0.906,-0.716 1.991,-1.248 3.175,-1.521l0.055,-0.011c0.139,-0.043 0.253,-0.087 0.363,-0.136l-0.02,0.008c0.996,-0.317 0.992,-0.317 1.366,-1.226c0.174,-0.426 0.358,-0.849 0.536,-1.275c0.072,-0.166 0.14,-0.332 0.207,-0.498c0.038,0.17 0.068,0.343 0.117,0.509c0.238,0.822 -0.124,1.641 0,2.46c0.057,0.396 0.087,0.796 0.14,1.192c0.005,0.029 0.007,0.062 0.007,0.096c0,0.308 -0.223,0.565 -0.517,0.617l-0.004,0.001c-0.457,0.068 -0.913,0.125 -1.37,0.196c-0.13,0.014 -0.249,0.05 -0.357,0.105l0.006,-0.003c-0.898,0.468 -1.83,0.879 -2.679,1.426c-1.385,0.915 -2.509,2.116 -3.309,3.526l-0.027,0.051c-0.29,0.502 -0.596,0.996 -0.853,1.509c-0.112,0.251 -0.203,0.545 -0.26,0.85l-0.004,0.025c-0.03,0.121 0.026,0.268 -0.023,0.377c-0.645,1.437 -0.377,2.962 -0.317,4.437c0.042,0.972 0.298,1.875 0.722,2.675l-0.017,-0.034c0.46,0.909 0.8,1.886 1.509,2.641c0.66,0.765 1.338,1.461 2.056,2.114l0.019,0.017c0.586,0.49 1.247,0.924 1.956,1.275l0.058,0.026c0.514,0.226 1.126,0.429 1.759,0.578l0.074,0.015c0.29,0.087 0.596,0.128 0.898,0.2c0.679,0.158 0.875,0.573 0.713,1.083c-0.268,0.834 -0.124,1.671 -0.151,2.509c0,0.294 0.147,0.596 0.162,0.898c-0.037,0.219 -0.103,0.416 -0.194,0.597l0.005,-0.012l0.001,-0.003z" fill="#000000"/>
  <path id="svg_3" d="m16.174,15.151c0.313,0.106 0.577,0.174 0.83,0.279c0.483,0.2 0.962,0.415 1.434,0.638s1.045,0.506 1.554,0.788c0.611,0.34 1.207,0.709 1.803,1.075c0.177,0.113 0.272,0.26 0.053,0.434c-0.049,0.041 -0.091,0.087 -0.136,0.132c-0.664,0.698 -0.656,0.687 -1.471,0.057c-0.251,-0.19 -0.534,-0.367 -0.832,-0.518l-0.031,-0.014c-0.954,-0.49 -1.92,-0.962 -2.879,-1.449c-0.087,-0.071 -0.2,-0.114 -0.322,-0.114c-0.097,0 -0.188,0.027 -0.265,0.074l0.002,-0.001c-1.064,0.596 -2.139,1.173 -3.233,1.717c-0.336,0.17 -0.26,0.306 -0.064,0.464c0.509,0.4 1.034,0.777 1.551,1.166c0.272,0.204 0.536,0.415 0.8,0.626c0.532,0.434 0.785,0.46 1.332,0.121c0.219,-0.155 0.475,-0.318 0.74,-0.467l0.045,-0.023c0.287,-0.14 0.189,-0.294 0.034,-0.415c-0.218,-0.166 -0.464,-0.329 -0.721,-0.476l-0.034,-0.018c-0.241,-0.14 -0.502,-0.241 -0.755,-0.377c-0.653,-0.377 -0.589,-0.377 -0.045,-0.898s0.973,-0.189 1.347,0.019c0.83,0.464 1.592,1.049 2.384,1.581c0.075,0.053 0.143,0.125 0.223,0.17c0.143,0.087 0.377,0.132 0.423,0.253c0.121,0.283 -0.121,0.468 -0.313,0.615c-0.951,0.721 -1.943,1.385 -2.852,2.15c-0.138,0.147 -0.334,0.239 -0.551,0.239c-0.208,0 -0.396,-0.084 -0.532,-0.22l0,0c-1.23,-0.872 -2.437,-1.777 -3.652,-2.671c-0.239,-0.225 -0.509,-0.422 -0.802,-0.582l-0.02,-0.01c-0.615,-0.219 -0.509,-0.69 -0.524,-1.154s0.298,-0.702 0.683,-0.89c1.294,-0.641 2.581,-1.305 3.875,-1.947c0.237,-0.109 0.543,-0.228 0.857,-0.332l0.068,-0.019l-0.004,-0.003z" fill="#000000"/>
  <path id="svg_4" d="m10.835,14.306c0.075,-0.299 0.153,-0.543 0.243,-0.781l-0.016,0.049q0.377,-0.894 0.777,-1.773c0.075,-0.147 0.173,-0.272 0.289,-0.376l0.001,-0.001c0.249,-0.23 0.513,-0.449 0.755,-0.675c0.048,0.295 0.08,0.641 0.087,0.992l0,0.008c-0.001,0.037 -0.002,0.08 -0.002,0.124c0,0.703 0.149,1.371 0.418,1.975l-0.012,-0.031c0.058,0.144 0.092,0.311 0.092,0.485c0,0.27 -0.081,0.521 -0.22,0.731l0.003,-0.005c-0.202,0.27 -0.389,0.575 -0.547,0.898l-0.015,0.034c-0.151,0.426 -0.423,0.396 -0.868,0.166c-0.724,-0.362 -0.871,-1.011 -0.985,-1.818l0,-0.002z" fill="#000000"/>
  <path id="svg_5" d="m16.381,9.907c-0.283,0.513 -0.155,1.132 -0.185,1.698c-0.011,0.104 -0.018,0.224 -0.018,0.345c0,0.496 0.107,0.968 0.298,1.393l-0.009,-0.021c0.073,0.101 0.117,0.227 0.117,0.364c0,0.25 -0.146,0.466 -0.358,0.566l-0.004,0.002c-0.118,0.095 -0.224,0.19 -0.324,0.29l0,0c-0.207,0.158 -0.543,0.475 -0.623,0.423c-0.437,-0.312 -0.821,-0.646 -1.17,-1.012l-0.003,-0.003c-0.053,-0.053 0,-0.238 0.038,-0.351c0.23,-0.822 0.411,-1.664 0.717,-2.456c0.294,-0.643 0.611,-1.193 0.973,-1.709l-0.022,0.034c0.06,-0.098 0.283,-0.204 0.347,-0.162s0.162,0.238 0.223,0.377c0.007,0.037 0.011,0.08 0.011,0.123c0,0.035 -0.003,0.069 -0.007,0.103l0,-0.004l-0.001,0z" fill="#000000"/>
  <path id="svg_6" d="m18.664,14.027c-0.087,0.377 -0.151,0.755 -0.268,1.132c-0.032,0.151 -0.164,0.262 -0.321,0.262c-0.11,0 -0.207,-0.054 -0.266,-0.136l-0.001,-0.001c-0.483,-0.581 -0.849,-1.192 -0.596,-2.015c0.099,-0.392 0.191,-0.884 0.254,-1.384l0.007,-0.064c0.042,-0.302 0.109,-0.573 0.201,-0.833l-0.009,0.029c0.094,-0.238 0.287,-0.653 0.377,-0.638c0.404,0.06 0.215,0.449 0.207,0.683c0,0.021 0,0.045 0,0.07c0,0.822 0.126,1.614 0.359,2.359l-0.015,-0.056c0.037,0.173 0.062,0.377 0.071,0.584l0,0.008z" fill="#000000"/>
  <path id="svg_7" d="m20.731,14.981c-0.053,0.192 -0.125,0.521 -0.223,0.841c-0.072,0.223 -0.196,0.196 -0.377,0.023c-0.687,-0.611 -0.781,-1.377 -0.796,-2.264c0.026,-0.841 0.275,-1.619 0.69,-2.283l-0.011,0.019c0.038,-0.075 0.14,-0.113 0.215,-0.17c0.041,0.102 0.091,0.196 0.125,0.298c0.004,0.028 0.006,0.061 0.006,0.094s-0.002,0.066 -0.006,0.098l0,-0.004c-0.012,0.158 -0.02,0.343 -0.02,0.529c0,0.822 0.138,1.612 0.393,2.347l-0.015,-0.05c0.016,0.104 0.025,0.225 0.025,0.348c0,0.061 -0.002,0.121 -0.007,0.181l0,-0.008l0.001,0.001z" fill="#000000"/>
 </g>
</svg>