<svg width="32" height="32" xmlns="http://www.w3.org/2000/svg" version="1.1">
 <title>factions-chaos-beasts-of-chaos</title>

 <g>
  <title>Layer 1</title>
  <path id="svg_1" d="m30.332,0.558c0.135,0.292 0.269,0.583 0.401,0.875c0.013,0.027 0.013,0.061 0.011,0.091c-0.027,0.587 -0.047,1.173 -0.083,1.761c-0.033,0.523 -0.158,1.029 -0.315,1.53c-0.248,0.793 -0.733,1.447 -1.19,2.121c-0.101,0.148 -0.138,0.338 -0.235,0.49c-0.074,0.115 -0.187,0.21 -0.296,0.296c-0.383,0.305 -0.766,0.616 -1.166,0.898c-0.239,0.168 -0.509,0.296 -0.774,0.425c-0.215,0.104 -0.441,0.19 -0.666,0.268c-0.124,0.043 -0.259,0.048 -0.388,0.08c-0.077,0.019 -0.151,0.048 -0.222,0.08c-0.08,0.036 -0.154,0.09 -0.237,0.117c-0.262,0.086 -0.525,0.212 -0.791,0.228c-0.224,0.013 -0.395,0.077 -0.573,0.187c-0.088,0.054 -0.194,0.094 -0.297,0.108c-0.076,0.011 -0.187,0 -0.235,-0.048c-0.145,-0.145 -0.231,-0.148 -0.395,0.004c-0.245,0.228 -0.385,0.479 -0.331,0.804c0.031,0.182 0.12,0.359 0.2,0.53c0.084,0.182 0.198,0.352 0.281,0.535c0.063,0.138 0.1,0.289 -0.029,0.423c-0.014,0.016 -0.02,0.046 -0.019,0.07c0.007,0.415 0.023,0.83 0.023,1.245c0,0.296 -0.013,0.593 -0.038,0.887c-0.009,0.097 -0.08,0.187 -0.118,0.281c-0.031,0.08 -0.081,0.164 -0.08,0.245c0.001,0.229 -0.076,0.419 -0.23,0.586c-0.037,0.04 -0.054,0.1 -0.091,0.14c-0.048,0.051 -0.104,0.096 -0.163,0.135c-0.03,0.02 -0.08,0.013 -0.107,0.034c-0.314,0.248 -0.63,0.495 -0.895,0.8c-0.064,0.074 -0.144,0.14 -0.23,0.188c-0.181,0.103 -0.308,0.235 -0.332,0.453c-0.017,0.157 -0.05,0.312 -0.077,0.468c-0.038,0.225 0.021,0.366 0.181,0.428c0.154,0.058 0.282,0 0.406,-0.185c0.016,-0.024 0.037,-0.046 0.06,-0.074c0.02,0.023 0.04,0.034 0.043,0.048c0.131,0.56 0.562,0.969 0.758,1.497c0.12,0.321 0.352,0.56 0.606,0.767c0.302,0.248 0.613,0.5 0.959,0.674c0.294,0.148 0.639,0.225 0.968,0.269c0.342,0.046 0.696,0.004 1.044,0.017c0.148,0.006 0.294,0.051 0.441,0.078c0.043,0.009 0.088,0.026 0.13,0.021c0.254,-0.031 0.508,-0.06 0.76,-0.103c0.468,-0.081 0.818,-0.389 1.192,-0.643c0.385,-0.262 0.778,-0.526 1.108,-0.851c0.379,-0.373 0.71,-0.801 1.025,-1.232c0.088,-0.121 0.066,-0.336 0.064,-0.509c-0.001,-0.108 0.021,-0.165 0.107,-0.235c0.09,-0.073 0.171,-0.181 0.205,-0.289c0.1,-0.308 0.178,-0.623 0.259,-0.937c0.024,-0.091 0.03,-0.187 0.046,-0.279c0.034,-0.202 0.076,-0.405 0.101,-0.609c0.023,-0.181 0.043,-0.365 0.041,-0.547c-0.001,-0.215 0.138,-0.349 0.251,-0.559c0.125,0.436 0.237,0.818 0.346,1.2c0.078,0.272 0.178,0.542 0.23,0.82c0.037,0.201 0.02,0.415 0.013,0.623c-0.009,0.291 -0.03,0.582 -0.046,0.872c-0.027,0.505 -0.029,1.012 -0.091,1.513c-0.048,0.383 -0.177,0.756 -0.264,1.133c-0.064,0.275 -0.108,0.555 -0.182,0.827c-0.05,0.187 -0.105,0.382 -0.21,0.54c-0.181,0.275 -0.402,0.522 -0.603,0.784c-0.046,0.058 -0.1,0.124 -0.111,0.192c-0.076,0.455 -0.361,0.767 -0.683,1.063c-0.686,0.633 -1.505,1.039 -2.349,1.403c-0.435,0.187 -0.892,0.262 -1.371,0.201c-0.123,-0.016 -0.254,0.04 -0.381,0.064c-0.08,0.014 -0.158,0.038 -0.238,0.046c-0.164,0.013 -0.329,0.031 -0.493,0.019c-0.16,-0.013 -0.328,-0.036 -0.473,-0.097c-0.235,-0.101 -0.462,-0.195 -0.718,-0.252c-0.259,-0.058 -0.546,-0.104 -0.78,-0.297c-0.221,-0.184 -0.48,-0.329 -0.738,-0.46c-0.372,-0.187 -0.693,-0.428 -0.979,-0.728c-0.18,-0.188 -0.379,-0.388 -0.612,-0.488c-0.218,-0.094 -0.492,-0.098 -0.737,-0.083s-0.345,0.241 -0.269,0.48c0.036,0.11 0.043,0.202 -0.041,0.315c-0.053,0.071 -0.017,0.214 -0.004,0.324c0.01,0.083 0.061,0.163 0.064,0.244c0.01,0.381 -0.031,0.767 0.03,1.138c0.037,0.224 0.108,0.449 0.077,0.67c-0.053,0.373 -0.153,0.741 -0.241,1.109c-0.009,0.038 -0.078,0.058 -0.108,0.097c-0.054,0.067 -0.117,0.134 -0.147,0.212c-0.134,0.359 -0.134,0.754 -0.375,1.093c-0.204,0.288 -0.302,0.65 -0.449,0.979c-0.067,0.15 -0.151,0.248 -0.339,0.285c-0.098,0.019 -0.167,0.207 -0.242,0.322c-0.058,0.088 -0.094,0.198 -0.168,0.267c-0.046,0.041 -0.168,0.053 -0.218,0.02s-0.083,-0.14 -0.077,-0.21c0.009,-0.104 0.046,-0.212 0.096,-0.305c0.081,-0.15 0.057,-0.277 0.023,-0.439c-0.033,-0.158 0.054,-0.351 0.118,-0.516c0.07,-0.185 0.127,-0.342 -0.029,-0.523c-0.063,-0.073 -0.054,-0.217 -0.056,-0.329c-0.004,-0.577 -0.003,-1.153 0,-1.731c0.001,-0.15 -0.034,-0.268 -0.175,-0.349c-0.053,-0.03 -0.101,-0.105 -0.11,-0.167c-0.038,-0.274 -0.077,-0.549 -0.088,-0.825c-0.014,-0.348 -0.017,-0.697 0.001,-1.045c0.019,-0.366 -0.13,-0.696 -0.187,-1.045c-0.031,-0.187 -0.058,-0.373 -0.088,-0.56c-0.01,-0.067 -0.023,-0.134 -0.033,-0.201c-0.019,-0.003 -0.038,-0.007 -0.057,-0.01c-0.031,0.113 -0.083,0.225 -0.09,0.339c-0.03,0.519 -0.048,1.038 -0.067,1.557c-0.003,0.091 0.004,0.164 -0.118,0.198c-0.054,0.016 -0.11,0.131 -0.111,0.202c-0.011,0.355 -0.003,0.71 -0.004,1.065c-0.001,0.319 -0.134,0.415 -0.426,0.306c-0.098,0.55 0.117,1.133 -0.131,1.632c0.033,0.242 0.098,0.46 0.083,0.673c-0.03,0.406 0.07,0.788 0.168,1.17c0.053,0.208 0.145,0.409 0.235,0.606c0.105,0.228 0.036,0.624 -0.182,0.855c-0.05,-0.064 -0.107,-0.12 -0.144,-0.188c-0.118,-0.221 -0.225,-0.449 -0.346,-0.67c-0.06,-0.108 -0.127,-0.22 -0.212,-0.306c-0.269,-0.271 -0.366,-0.632 -0.513,-0.965c-0.18,-0.411 -0.345,-0.827 -0.506,-1.245c-0.058,-0.151 -0.158,-0.352 -0.103,-0.465c0.093,-0.194 0.046,-0.378 0.067,-0.563c0.007,-0.068 -0.044,-0.143 -0.064,-0.215c-0.016,-0.058 -0.031,-0.12 -0.031,-0.181c-0.003,-0.855 -0.003,-1.711 -0.004,-2.566c0,-0.056 0,-0.11 0,-0.15c-0.415,-0.076 -0.606,-0.378 -0.814,-0.679c-0.048,0.144 -0.123,0.19 -0.299,0.157c-0.128,-0.024 -0.308,0.071 -0.422,0.165c-0.542,0.443 -1.069,0.905 -1.602,1.361c-0.029,0.024 -0.061,0.064 -0.091,0.063c-0.335,-0.009 -0.562,0.214 -0.807,0.385c-0.197,0.137 -0.398,0.198 -0.639,0.19c-0.576,-0.023 -1.082,0.224 -1.582,0.462c-0.272,0.13 -0.519,0.254 -0.818,0.074c-0.076,-0.046 -0.195,-0.027 -0.294,-0.019c-0.147,0.014 -0.291,0.05 -0.436,0.07c-0.15,0.02 -0.301,0.044 -0.452,0.046c-0.403,0.004 -0.807,0 -1.16,-0.245c-0.057,-0.04 -0.141,-0.056 -0.212,-0.054c-0.421,0.01 -0.723,-0.212 -1.001,-0.49c-0.184,-0.182 -0.334,-0.403 -0.627,-0.449c-0.11,-0.017 -0.207,-0.13 -0.304,-0.207c-0.522,-0.418 -0.855,-0.972 -1.129,-1.568c-0.097,-0.211 -0.218,-0.396 -0.386,-0.57c-0.291,-0.301 -0.405,-0.706 -0.496,-1.113c-0.08,-0.356 -0.194,-0.706 -0.289,-1.058c-0.044,-0.164 -0.087,-0.328 -0.124,-0.493c-0.057,-0.259 -0.127,-0.517 -0.157,-0.78c-0.033,-0.299 -0.033,-0.603 -0.039,-0.904c-0.004,-0.202 0.014,-0.406 0.003,-0.609c-0.009,-0.161 -0.026,-0.328 -0.076,-0.48c-0.125,-0.382 -0.07,-0.773 -0.038,-1.15c0.054,-0.647 0.171,-1.29 0.258,-1.936c0.02,-0.151 0.05,-0.278 0.214,-0.345c0.076,-0.03 0.127,-0.12 0.198,-0.191c0.036,0.029 0.083,0.048 0.098,0.083c0.14,0.304 0.211,0.614 0.103,0.948c-0.038,0.118 -0.067,0.242 -0.08,0.365c-0.011,0.111 0.014,0.211 0.161,0.237c0.044,0.007 0.098,0.077 0.111,0.127c0.083,0.319 0.157,0.642 0.231,0.964c0.029,0.121 0.044,0.245 0.071,0.366c0.086,0.376 0.172,0.751 0.261,1.126c0.007,0.03 0.027,0.06 0.026,0.09c-0.013,0.366 0.177,0.676 0.272,1.012c0.13,0.458 0.386,0.841 0.68,1.202c0.141,0.174 0.322,0.316 0.472,0.485c0.073,0.083 0.097,0.214 0.177,0.285c0.124,0.111 0.278,0.187 0.415,0.285c0.185,0.133 0.361,0.278 0.549,0.406c0.312,0.214 0.622,0.416 1.036,0.391c0.429,-0.027 0.861,-0.006 1.292,-0.006c0.044,0 0.103,0.016 0.13,-0.006c0.264,-0.217 0.644,-0.087 0.914,-0.339c0.2,-0.187 0.486,-0.278 0.726,-0.423c0.133,-0.081 0.245,-0.197 0.375,-0.282c0.158,-0.103 0.336,-0.177 0.488,-0.288c0.232,-0.171 0.448,-0.365 0.673,-0.546c0.127,-0.103 0.274,-0.187 0.383,-0.305c0.144,-0.157 0.247,-0.354 0.392,-0.509c0.218,-0.234 0.46,-0.445 0.689,-0.669c0.09,-0.088 0.17,-0.185 0.252,-0.278c0.004,0.026 0.009,0.051 0.013,0.077c0.184,0.036 0.368,0.08 0.555,0.107c0.282,0.04 0.408,-0.239 0.314,-0.446c-0.087,-0.192 -0.084,-0.369 -0.06,-0.517c-0.108,-0.076 -0.188,-0.131 -0.269,-0.187c-0.208,-0.141 -0.419,-0.278 -0.623,-0.422c-0.066,-0.046 -0.108,-0.123 -0.172,-0.171c-0.07,-0.053 -0.153,-0.09 -0.229,-0.133c-0.021,-0.011 -0.057,-0.021 -0.061,-0.037c-0.086,-0.336 -0.406,-0.473 -0.603,-0.716c-0.016,-0.019 -0.041,-0.036 -0.044,-0.057c-0.04,-0.22 -0.094,-0.439 -0.11,-0.66c-0.01,-0.14 -0.037,-0.254 -0.128,-0.361c-0.211,-0.249 -0.221,-0.5 -0.06,-0.78c0.044,-0.077 0.071,-0.175 0.074,-0.264c0.014,-0.493 0.023,-0.988 0.024,-1.481c0,-0.078 -0.041,-0.155 -0.06,-0.234c-0.01,-0.043 -0.019,-0.09 -0.011,-0.133c0.074,-0.448 -0.056,-0.894 0,-1.341c0.017,-0.134 -0.046,-0.171 -0.172,-0.181c-0.143,-0.011 -0.284,-0.048 -0.423,-0.083c-0.137,-0.033 -0.254,-0.051 -0.272,0.141c-0.016,0.16 -0.145,0.158 -0.244,0.124c-0.301,-0.104 -0.596,-0.228 -0.894,-0.344c-0.04,-0.016 -0.086,-0.037 -0.125,-0.031c-0.187,0.026 -0.351,-0.001 -0.483,-0.153c-0.026,-0.029 -0.103,-0.044 -0.134,-0.027c-0.212,0.114 -0.408,0.01 -0.606,-0.037c-0.205,-0.048 -0.413,-0.1 -0.61,-0.175c-0.505,-0.195 -1.006,-0.399 -1.505,-0.609c-0.862,-0.364 -1.468,-1.048 -2.11,-1.692c-0.758,-0.763 -1.294,-1.651 -1.644,-2.663c-0.141,-0.412 -0.322,-0.81 -0.452,-1.225c-0.118,-0.379 -0.163,-0.77 0.088,-1.14c0.212,0.255 0.451,0.49 0.629,0.767c0.292,0.452 0.683,0.777 1.15,1.024c0.492,0.261 0.991,0.51 1.48,0.776c0.326,0.177 0.632,0.393 0.965,0.552c0.332,0.158 0.687,0.268 1.032,0.395c0.144,0.053 0.291,0.101 0.438,0.147c0.029,0.009 0.07,0.014 0.094,0.001c0.385,-0.225 0.726,0.017 1.081,0.103c0.03,0.007 0.066,0.024 0.093,0.016c0.381,-0.133 0.747,0.054 1.125,0.048c0.296,-0.004 0.579,-0.016 0.847,-0.147c0.131,-0.063 0.228,-0.024 0.262,0.115c0.026,0.101 0.026,0.21 0.039,0.324c0,0 0.013,0.016 0.019,0.014c0.396,-0.123 0.508,0.218 0.652,0.442c0.161,0.251 0.555,0.334 0.797,0.023c0.081,-0.103 0.222,-0.16 0.302,-0.262c0.172,-0.222 0.416,-0.167 0.639,-0.224c0.192,-0.048 0.419,-0.077 0.566,-0.284c0.134,-0.19 0.376,-0.247 0.592,-0.322c0.088,-0.031 0.178,-0.063 0.262,-0.106c0.174,-0.088 0.339,-0.191 0.516,-0.271c0.083,-0.037 0.181,-0.037 0.274,-0.048c0.285,-0.033 0.57,-0.084 0.855,-0.088c0.241,-0.004 0.483,0.056 0.724,0.067c0.108,0.006 0.221,-0.034 0.331,-0.056c0.147,-0.029 0.294,-0.071 0.442,-0.088c0.131,-0.016 0.268,0.009 0.399,-0.009c0.379,-0.048 0.737,0.054 1.101,0.133c0.171,0.037 0.354,0.02 0.53,0.037c0.331,0.034 0.661,0.071 0.991,0.118c0.074,0.01 0.137,0.08 0.211,0.101c0.338,0.097 0.664,0.218 0.977,0.382c0.081,0.043 0.211,0.006 0.315,-0.014c0.074,-0.014 0.143,-0.058 0.261,-0.111c0,0.144 -0.024,0.251 0.006,0.338c0.033,0.097 0.1,0.224 0.181,0.249s0.22,-0.031 0.292,-0.097c0.138,-0.124 0.238,-0.292 0.375,-0.418c0.087,-0.08 0.21,-0.125 0.324,-0.171c0.646,-0.255 1.32,-0.083 1.98,-0.134c0.12,-0.01 0.237,-0.066 0.354,-0.1c0.097,-0.029 0.192,-0.061 0.289,-0.087c0.436,-0.117 0.878,-0.214 1.309,-0.349c1.096,-0.348 1.808,-1.15 2.396,-2.083c0.222,-0.352 0.413,-0.724 0.584,-1.103c0.105,-0.234 0.137,-0.499 0.218,-0.744c0.103,-0.291 0.218,-0.559 0.47,-0.727l-0.016,0.002zm-19.024,13.86c-0.014,0.006 -0.03,0.01 -0.046,0.016c0.081,0.281 0.154,0.565 0.245,0.843c0.061,0.185 0.372,0.433 0.515,0.395c0.167,-0.044 0.238,0.027 0.315,0.147s0.214,0.175 0.329,0.107c0.1,-0.06 0.191,-0.181 0.229,-0.294c0.098,-0.291 0.047,-0.555 -0.227,-0.743c-0.031,-0.021 -0.037,-0.078 -0.061,-0.114c-0.117,-0.172 -0.182,-0.382 -0.441,-0.433c-0.105,-0.021 -0.18,-0.172 -0.282,-0.247c-0.096,-0.068 -0.205,-0.151 -0.314,-0.157c-0.144,-0.01 -0.237,0.108 -0.261,0.255c-0.013,0.073 -0.003,0.15 -0.003,0.225l0.002,0zm11.194,-0.622c-0.034,0.019 -0.087,0.058 -0.145,0.074c-0.331,0.087 -0.567,0.296 -0.805,0.535c-0.241,0.241 -0.451,0.53 -0.788,0.669c-0.17,0.068 -0.198,0.238 -0.101,0.399c0.194,0.325 0.774,0.341 1.012,0.04c0.117,-0.148 0.242,-0.322 0.405,-0.396c0.185,-0.086 0.298,-0.192 0.324,-0.378c0.044,-0.315 0.068,-0.63 0.1,-0.942l-0.002,-0.001z" fill="#000000"/>
 </g>
</svg>