<svg width="32" height="32" xmlns="http://www.w3.org/2000/svg" version="1.1">
 <title>factions-chaos-corvus-cabal</title>

 <g>
  <title>Layer 1</title>
  <path id="svg_1" d="m15.622,1.129c0.143,0.041 0.26,0.109 0.336,0.248c0.035,0.064 0.117,0.107 0.183,0.151c0.475,0.307 0.964,0.596 1.425,0.926c0.262,0.187 0.483,0.433 0.71,0.666c0.064,0.066 0.099,0.177 0.113,0.271c0.031,0.208 0.048,0.418 0.056,0.628c0.029,0.651 0.075,1.303 0.069,1.954c-0.005,0.547 0.104,1.058 0.315,1.556c0.039,0.09 0.046,0.194 0.07,0.292c0.011,0.049 0.019,0.099 0.039,0.144c0.191,0.443 0.386,0.882 0.573,1.326c0.04,0.094 0.063,0.202 0.065,0.303c0.005,0.169 0.108,0.261 0.27,0.208c0.075,-0.025 0.143,-0.073 0.217,-0.103c0.177,-0.073 0.295,-0.009 0.305,0.174c0.003,0.045 -0.038,0.122 -0.075,0.134c-0.495,0.161 -0.863,0.508 -1.219,0.858c-0.396,0.389 -0.755,0.816 -1.134,1.223c-0.138,0.148 -0.137,0.301 -0.043,0.467c0.033,0.056 0.08,0.113 0.085,0.173c0.005,0.063 -0.013,0.163 -0.055,0.188c-0.117,0.068 -0.171,0.164 -0.201,0.285c-0.074,0.287 -0.199,0.543 -0.411,0.756c-0.099,0.099 -0.183,0.209 -0.352,0.1c0,0.115 0,0.204 0,0.306c0.124,0.013 0.246,0.029 0.369,0.036c0.213,0.013 0.34,0.155 0.467,0.3c0.018,0.02 0.023,0.075 0.008,0.094c-0.248,0.305 -0.261,0.687 -0.347,1.045c-0.132,0.543 -0.191,1.096 -0.142,1.655c0.005,0.058 0.063,0.138 0.114,0.158c0.188,0.071 0.237,0.163 0.148,0.356c-0.123,0.268 -0.28,0.524 -0.375,0.803c-0.169,0.49 -0.319,0.988 -0.443,1.492c-0.051,0.208 -0.008,0.439 -0.021,0.66c-0.041,0.64 -0.087,1.279 -0.135,1.919c-0.04,0.524 -0.069,1.051 -0.139,1.573c-0.104,0.769 -0.247,1.532 -0.364,2.299c-0.088,0.579 -0.157,1.161 -0.241,1.742c-0.098,0.68 -0.197,1.358 -0.306,2.035c-0.019,0.118 -0.095,0.227 -0.145,0.341c-0.018,-0.005 -0.036,-0.01 -0.054,-0.014c-0.041,-0.35 -0.09,-0.7 -0.122,-1.051c-0.122,-1.343 -0.226,-2.688 -0.36,-4.029c-0.1,-1.007 -0.242,-2.01 -0.352,-3.016c-0.031,-0.288 -0.01,-0.582 -0.036,-0.87c-0.102,-1.143 -0.248,-2.282 -0.305,-3.427c-0.033,-0.668 -0.177,-1.292 -0.391,-1.915c-0.154,-0.449 -0.275,-0.911 -0.41,-1.366c-0.006,-0.023 -0.006,-0.046 0.019,-0.103c0.064,0.043 0.133,0.079 0.189,0.13c0.071,0.064 0.115,0.063 0.186,-0.01c0.102,-0.108 0.223,-0.196 0.345,-0.298c-0.034,-0.031 -0.073,-0.068 -0.112,-0.104c-0.129,-0.118 -0.176,-0.262 -0.099,-0.421c0.088,-0.182 0.048,-0.339 -0.05,-0.495c-0.053,-0.085 -0.102,-0.172 -0.155,-0.257c-0.09,-0.144 -0.12,-0.147 -0.261,-0.055c-0.083,0.054 -0.173,0.099 -0.265,0.14c-0.129,0.059 -0.198,-0.002 -0.224,-0.129c-0.035,-0.173 0.004,-0.335 0.108,-0.469c0.082,-0.105 0.183,-0.198 0.287,-0.282s0.144,-0.171 0.089,-0.298c-0.087,-0.197 -0.169,-0.396 -0.247,-0.597c-0.041,-0.107 -0.117,-0.157 -0.226,-0.171c-0.438,-0.054 -0.716,-0.305 -0.868,-0.71c-0.011,-0.03 -0.034,-0.074 -0.058,-0.078c-0.144,-0.021 -0.132,-0.128 -0.155,-0.233c-0.026,-0.115 -0.075,-0.24 -0.15,-0.329c-0.199,-0.231 -0.421,-0.443 -0.63,-0.667c-0.053,-0.056 -0.087,-0.132 -0.122,-0.203c-0.013,-0.025 -0.001,-0.063 0,-0.095c0.031,0.008 0.068,0.006 0.093,0.023c0.107,0.074 0.211,0.153 0.315,0.232c0.207,0.158 0.411,0.32 0.622,0.473c0.054,0.039 0.125,0.053 0.208,0.087c0.014,-0.103 0.025,-0.184 0.04,-0.291c0.059,0.024 0.118,0.036 0.159,0.068c0.208,0.157 0.423,0.307 0.615,0.483c0.314,0.288 0.611,0.594 0.912,0.895c0.063,0.064 0.115,0.138 0.166,0.213c0.155,0.233 0.28,0.27 0.534,0.153c0.105,-0.049 0.154,-0.13 0.124,-0.243c-0.104,-0.388 -0.218,-0.773 -0.455,-1.105c-0.039,-0.055 -0.112,-0.097 -0.177,-0.122c-0.174,-0.064 -0.247,-0.145 -0.245,-0.332c0.004,-0.319 -0.142,-0.546 -0.41,-0.701c-0.122,-0.07 -0.247,-0.132 -0.372,-0.196c-0.182,-0.093 -0.229,-0.083 -0.36,0.073c-0.068,0.08 -0.128,0.169 -0.207,0.235c-0.087,0.071 -0.188,0.152 -0.312,0.075c-0.135,-0.084 -0.278,-0.193 -0.25,-0.364c0.071,-0.416 0.038,-0.852 0.228,-1.249c0.066,-0.139 0.148,-0.248 0.293,-0.302c0.213,-0.079 0.292,-0.237 0.291,-0.458c-0.004,-0.592 0.006,-1.184 -0.002,-1.776c-0.004,-0.198 -0.035,-0.399 -0.08,-0.592c-0.049,-0.211 -0.018,-0.399 0.046,-0.601c0.069,-0.221 0.083,-0.459 0.125,-0.69c0.01,-0.055 0.03,-0.12 0.068,-0.158c0.334,-0.326 0.671,-0.647 1.01,-0.969c0.016,-0.016 0.04,-0.025 0.088,-0.054c0.006,0.137 0.011,0.252 0.018,0.382c0.04,-0.013 0.078,-0.019 0.11,-0.035c0.518,-0.262 0.968,-0.588 1.134,-1.189c0.028,-0.099 0.089,-0.188 0.134,-0.281c0.06,-0.002 0.12,-0.002 0.181,-0.002l-0.004,-0.002zm1.076,10.161c0.016,0.233 0.029,0.394 0.04,0.554c0.001,0.015 0,0.031 0.004,0.045c0.03,0.095 0.05,0.194 0.093,0.282c0.046,0.095 0.138,0.089 0.166,-0.002c0.028,-0.097 0.03,-0.217 -0.003,-0.311c-0.05,-0.143 -0.049,-0.419 0.048,-0.527c0.029,-0.031 0.097,-0.064 0.127,-0.05c0.142,0.064 0.203,-0.02 0.262,-0.122c0.159,-0.276 0.364,-0.51 0.61,-0.717c0.257,-0.214 0.495,-0.454 0.736,-0.687c0.223,-0.216 0.183,-0.681 -0.07,-0.816c-0.135,-0.073 -0.275,-0.144 -0.42,-0.194c-0.071,-0.025 -0.168,-0.02 -0.241,0.008c-0.115,0.044 -0.218,0.119 -0.329,0.177c-0.154,0.079 -0.257,0.197 -0.327,0.356c-0.109,0.247 -0.217,0.498 -0.359,0.726c-0.258,0.418 -0.297,0.883 -0.336,1.279l-0.001,-0.001zm-0.798,5.855c0.011,0.001 0.024,0.004 0.035,0.005c0.025,-0.083 0.06,-0.164 0.075,-0.248c0.075,-0.419 0.144,-0.839 0.218,-1.258c0.02,-0.113 0.006,-0.255 0.188,-0.255c0.021,0 0.051,-0.033 0.061,-0.058c0.045,-0.105 0.097,-0.211 0.122,-0.322c0.03,-0.132 -0.035,-0.238 -0.155,-0.296c-0.238,-0.115 -0.537,0.061 -0.541,0.321c-0.01,0.657 -0.015,1.313 -0.02,1.97c0,0.048 0.01,0.094 0.016,0.14l0.001,0.001zm-0.763,-0.597c0.009,-0.001 0.019,-0.001 0.028,-0.003c0.013,-0.066 0.033,-0.132 0.038,-0.198c0.009,-0.105 0.023,-0.187 0.155,-0.212c0.105,-0.021 0.122,-0.123 0.071,-0.206c-0.147,-0.241 -0.177,-0.503 -0.183,-0.778c-0.004,-0.197 -0.143,-0.33 -0.33,-0.346c-0.123,-0.01 -0.209,0.049 -0.272,0.15c-0.056,0.09 -0.073,0.187 0.005,0.262c0.202,0.198 0.251,0.459 0.319,0.714c0.055,0.206 0.113,0.411 0.169,0.616l0,0.001zm0.927,-2.443c-0.019,0.089 -0.03,0.138 -0.04,0.187c0.054,0.01 0.109,0.019 0.206,0.036c-0.066,-0.088 -0.1,-0.134 -0.166,-0.223zm-1.678,0.474c-0.082,0.089 -0.132,0.144 -0.182,0.199c0.014,0.016 0.026,0.034 0.04,0.05c0.056,-0.04 0.115,-0.078 0.166,-0.124c0.01,-0.01 -0.01,-0.054 -0.024,-0.125z" />
  <path id="svg_2" d="m31.999,10.858c-0.058,-0.023 -0.089,-0.031 -0.118,-0.045c-0.46,-0.226 -0.916,-0.45 -1.41,-0.613c-0.61,-0.201 -1.183,-0.513 -1.772,-0.778c-0.064,-0.029 -0.122,-0.073 -0.188,-0.094c-1.15,-0.377 -2.21,-0.966 -3.321,-1.433c-0.552,-0.232 -1.132,-0.399 -1.686,-0.628c-0.508,-0.211 -1.001,-0.458 -1.494,-0.704c-0.241,-0.12 -0.485,-0.198 -0.751,-0.151c-0.222,0.04 -0.376,-0.016 -0.479,-0.227c-0.034,-0.07 -0.114,-0.159 -0.179,-0.166c-0.115,-0.01 -0.174,0.097 -0.208,0.204c-0.009,0.026 -0.033,0.046 -0.058,0.083c-0.11,-0.198 -0.104,-0.38 -0.025,-0.571c0.041,-0.099 0.075,-0.206 0.093,-0.311c0.1,-0.622 0.296,-1.213 0.562,-1.816c0.056,0.237 0.104,0.443 0.157,0.648c0.026,0.103 0.074,0.188 0.212,0.166c0.033,-0.147 -0.078,-0.329 0.1,-0.44c0.199,-0.125 0.267,0.123 0.418,0.142c0.092,-0.163 0.089,-0.159 0.242,-0.045c0.241,0.181 0.48,0.362 0.729,0.532c0.372,0.253 0.675,0.563 0.878,0.969c0.044,0.087 0.133,0.163 0.219,0.214c0.885,0.52 1.783,1.02 2.66,1.554c0.646,0.393 1.265,0.83 1.899,1.243c0.214,0.139 0.436,0.262 0.701,0.291c0.092,0.01 0.178,0.061 0.265,0.1c0.256,0.114 0.517,0.218 0.762,0.352c0.144,0.079 0.265,0.203 0.391,0.31c0.049,0.041 0.085,0.099 0.135,0.139c0.228,0.181 0.456,0.36 0.69,0.534c0.054,0.04 0.124,0.059 0.187,0.088c0.035,0.016 0.083,0.025 0.104,0.053c0.092,0.12 0.176,0.246 0.285,0.399l0,0.001z" />
  <path id="svg_3" d="m9.159,26.936c-0.046,-0.058 -0.055,-0.065 -0.058,-0.074c-0.004,-0.014 -0.005,-0.03 -0.004,-0.044c0.473,-3.263 0.983,-6.524 1.028,-9.832c0.001,-0.068 0.034,-0.135 0.054,-0.213c0.033,0.015 0.06,0.023 0.083,0.038c0.109,0.075 0.187,0.038 0.217,-0.076c0.083,-0.314 0.183,-0.626 0.226,-0.944c0.044,-0.33 0.069,-0.667 -0.051,-0.997c-0.034,-0.093 -0.015,-0.206 -0.023,-0.341c0.271,0.083 0.325,-0.105 0.398,-0.273c0.227,-0.529 0.45,-1.06 0.684,-1.586c0.089,-0.198 0.203,-0.385 0.306,-0.577c0.015,0.006 0.029,0.013 0.044,0.019c-0.074,0.405 -0.147,0.811 -0.221,1.216c-0.014,0.074 -0.04,0.148 -0.036,0.222c0.005,0.093 0.034,0.186 0.054,0.29c-0.015,0.002 -0.06,0.009 -0.104,0.014c-0.028,0.188 0.009,0.247 0.177,0.288c0.208,0.051 0.214,0.06 0.186,0.276c-0.021,0.157 0.058,0.3 0.211,0.381c0.15,0.08 0.147,0.11 0.033,0.237c-0.127,0.14 -0.253,0.286 -0.345,0.449c-0.133,0.238 -0.143,0.497 -0.03,0.754c0.092,0.209 0.112,0.424 0.051,0.646c-0.482,1.783 -0.963,3.567 -1.444,5.35c-0.201,0.744 -0.395,1.49 -0.604,2.232c-0.214,0.756 -0.441,1.507 -0.67,2.26c-0.03,0.094 -0.099,0.178 -0.161,0.287l-0.001,-0.002zm2.477,-12.778c-0.063,0.172 -0.03,0.213 0.158,0.193c-0.055,-0.068 -0.105,-0.128 -0.158,-0.193z" />
  <path id="svg_4" d="m0,11.405c0.139,-0.065 0.271,-0.115 0.39,-0.187c0.13,-0.08 0.25,-0.181 0.372,-0.273c0.075,-0.058 0.143,-0.127 0.224,-0.174c0.446,-0.267 0.897,-0.53 1.346,-0.794c0.37,-0.217 0.735,-0.444 1.114,-0.645c0.206,-0.108 0.436,-0.166 0.653,-0.255c0.069,-0.029 0.13,-0.079 0.191,-0.125c0.099,-0.075 0.183,-0.174 0.291,-0.229c1.214,-0.618 2.305,-1.41 3.306,-2.33c0.033,-0.03 0.065,-0.061 0.098,-0.093c0.147,-0.142 0.236,-0.213 0.403,-0.003c0.034,0.043 0.157,0.061 0.209,0.034c0.583,-0.301 1.16,-0.613 1.737,-0.924c0.034,-0.019 0.068,-0.046 0.089,-0.079c0.045,-0.066 0.092,-0.069 0.164,-0.043c0.063,0.023 0.135,0.016 0.219,0.024c0.098,0.271 0.127,0.563 -0.036,0.857c-0.134,0.242 -0.112,0.505 -0.049,0.763c0.016,0.069 0.097,0.122 0.159,0.196c-0.018,0.117 -0.11,0.188 -0.222,0.238c-0.142,0.063 -0.29,0.113 -0.429,0.179c-0.216,0.103 -0.426,0.213 -0.64,0.321c-0.049,0.025 -0.098,0.05 -0.147,0.075c-0.167,0.088 -0.332,0.176 -0.499,0.263c-0.049,0.025 -0.098,0.051 -0.15,0.068c-0.339,0.105 -0.681,0.202 -1.018,0.312c-0.844,0.276 -1.698,0.52 -2.53,0.838c-0.434,0.166 -0.885,0.282 -1.328,0.425c-0.147,0.048 -0.292,0.104 -0.434,0.168c-0.581,0.26 -1.17,0.502 -1.734,0.794c-0.487,0.252 -0.987,0.46 -1.5,0.646c-0.134,0.044 -0.137,0.049 -0.25,-0.046l0.001,-0.001z" />
  <path id="svg_5" d="m21.058,17.269c0.048,-0.011 0.09,-0.023 0.107,-0.026c0.088,0.1 0.168,0.188 0.243,0.28c0.014,0.018 0.016,0.048 0.016,0.073c0.031,0.715 0.291,1.378 0.473,2.059c0.45,1.683 0.983,3.343 1.323,5.054c0.083,0.415 0.157,0.83 0.236,1.247c-0.014,0.004 -0.026,0.008 -0.04,0.011c-0.02,-0.044 -0.043,-0.087 -0.06,-0.132c-0.632,-1.575 -1.274,-3.145 -1.89,-4.727c-0.46,-1.183 -0.997,-2.329 -1.546,-3.469c-0.065,-0.134 -0.109,-0.247 0.023,-0.379c0.038,-0.038 0.006,-0.172 -0.028,-0.246c-0.228,-0.49 -0.474,-0.972 -0.699,-1.464c-0.137,-0.3 -0.247,-0.612 -0.366,-0.921c-0.054,-0.139 -0.034,-0.25 0.124,-0.315c0.134,-0.055 0.168,-0.187 0.166,-0.314c-0.003,-0.24 -0.023,-0.478 -0.038,-0.717c-0.003,-0.039 -0.013,-0.076 -0.019,-0.117c0.016,-0.004 0.026,-0.009 0.034,-0.006c0.347,0.14 0.396,0.12 0.537,-0.227c0.068,-0.167 0.132,-0.336 0.199,-0.503c0.019,-0.048 0.046,-0.092 0.087,-0.171c0.068,0.926 0.362,1.762 0.532,2.624c0.143,0.731 0.332,1.454 0.503,2.178c0.01,0.044 0.023,0.088 0.039,0.129c0.009,0.026 0.028,0.049 0.045,0.076l-0.001,0.003z" />
  <path id="svg_6" d="m7.711,12.118c0.029,0.094 0.045,0.145 0.06,0.196c0.261,0.051 0.303,0.02 0.301,-0.232c-0.002,-0.162 0.038,-0.305 0.147,-0.429c0.303,-0.346 0.604,-0.695 0.904,-1.045c0.177,-0.206 0.345,-0.418 0.527,-0.618c0.113,-0.125 0.283,-0.216 0.352,-0.359c0.065,-0.137 0.033,-0.32 0.043,-0.483c0.198,0.029 0.37,0.217 0.398,0.434c0.015,0.119 0.026,0.24 0.031,0.36c0.009,0.253 0.092,0.477 0.235,0.686c0.093,0.135 0.172,0.282 0.238,0.433c0.064,0.145 0.002,0.222 -0.155,0.246c-0.053,0.008 -0.113,0.035 -0.15,0.073c-0.08,0.08 -0.143,0.179 -0.224,0.257c-0.806,0.779 -1.707,1.442 -2.596,2.121c-0.39,0.297 -0.76,0.625 -1.109,0.969c-0.729,0.721 -1.5,1.385 -2.357,1.954c-0.334,0.222 -0.603,0.539 -0.917,0.795c-0.227,0.186 -0.477,0.344 -0.717,0.513c-0.021,0.015 -0.051,0.019 -0.123,0.045c0.069,-0.1 0.105,-0.169 0.155,-0.226c0.457,-0.519 0.907,-1.045 1.377,-1.551c0.423,-0.455 0.874,-0.883 1.303,-1.332c0.372,-0.391 0.74,-0.788 1.089,-1.2c0.07,-0.083 0.046,-0.246 0.065,-0.371c0.011,-0.071 0.021,-0.143 0.033,-0.214c0.068,0.025 0.135,0.049 0.202,0.078c0.036,0.016 0.069,0.041 0.103,0.063c0.157,0.1 0.198,0.084 0.214,-0.098c0.008,-0.089 0.001,-0.181 -0.01,-0.268c-0.025,-0.197 0.028,-0.35 0.199,-0.467c0.129,-0.095 0.243,-0.211 0.383,-0.329l-0.001,-0.001z" />
  <path id="svg_7" d="m26.788,18.363c-0.742,-1.106 -1.748,-1.919 -2.575,-2.892c-0.596,-0.702 -1.12,-1.464 -1.667,-2.206c-0.282,-0.383 -0.544,-0.781 -0.815,-1.173c-0.025,-0.036 -0.053,-0.089 -0.089,-0.098c-0.188,-0.046 -0.209,-0.198 -0.261,-0.35c-0.053,-0.153 -0.147,-0.296 -0.243,-0.429c-0.035,-0.049 -0.127,-0.069 -0.196,-0.079c-0.31,-0.046 -0.413,-0.298 -0.219,-0.557c0.065,-0.089 0.138,-0.172 0.204,-0.261c0.075,-0.1 0.145,-0.203 0.221,-0.305c0.071,-0.097 0.085,-0.176 -0.02,-0.272c-0.129,-0.118 -0.079,-0.489 0.064,-0.592c0.084,-0.06 0.325,-0.005 0.38,0.087c0.064,0.108 0.122,0.219 0.192,0.324c0.092,0.135 0.194,0.263 0.288,0.398c0.065,0.094 0.14,0.187 0.182,0.292c0.102,0.257 0.283,0.457 0.445,0.672c0.078,0.103 0.138,0.232 0.163,0.359c0.049,0.245 0.112,0.477 0.291,0.663c0.061,0.064 0.109,0.143 0.159,0.218c0.414,0.627 0.818,1.263 1.243,1.882c0.441,0.643 0.796,1.332 1.112,2.043c0.183,0.413 0.386,0.813 0.658,1.176c0.231,0.315 0.372,0.677 0.482,1.099l0.001,0.001z" />
  <path id="svg_8" d="m20.711,8.739c0.151,0.063 0.176,0.167 0.149,0.282c-0.038,0.168 -0.089,0.332 -0.14,0.518c-0.119,-0.095 -0.186,-0.196 -0.158,-0.32c0.035,-0.163 0.097,-0.319 0.149,-0.48z" />
 </g>
</svg>