<svg width="32" height="32" xmlns="http://www.w3.org/2000/svg" version="1.1">
 <title>factions-chaos-horns-of-hashut</title>

 <g>
  <title>Layer 1</title>
  <path id="svg_1" d="m15.168,30.067c-0.828,-1.124 -1.636,-2.523 -1.951,-3.312c-0.296,-0.749 -0.769,-1.853 -1.045,-2.444s-0.749,-1.695 -1.064,-2.464c-0.296,-0.749 -0.611,-1.459 -0.71,-1.557c-0.079,-0.118 -0.158,-0.355 -0.158,-0.532c0,-0.197 -0.394,-0.788 -0.867,-1.36c-0.473,-0.552 -1.005,-1.419 -1.202,-1.932c-0.394,-1.124 -0.473,-1.281 -1.459,-3.41c-0.552,-1.163 -1.025,-1.873 -1.537,-2.287c-0.414,-0.335 -0.946,-0.769 -1.202,-0.986c-0.355,-0.276 -0.473,-0.65 -0.631,-1.952c-0.099,-0.867 -0.237,-1.814 -0.296,-2.089c-0.237,-0.887 2.898,-5.086 3.785,-5.086c0.118,0 0.039,0.355 -0.177,0.788c-0.611,1.202 -0.848,3.095 -0.532,4.021c0.375,1.045 0.926,1.399 3.331,2.03c2.03,0.532 2.168,0.552 7.077,0.512c2.819,-0.02 5.48,-0.138 6.111,-0.276c1.478,-0.296 2.503,-0.887 2.819,-1.636c0.375,-0.867 0.355,-5.263 -0.02,-5.716c-0.532,-0.65 -0.099,-0.453 1.163,0.493c0.749,0.572 1.399,1.242 1.557,1.616c0.453,1.045 0.808,2.543 0.808,3.391c0,1.518 -0.986,4.337 -2.03,5.776c-0.946,1.321 -2.503,4.435 -2.503,5.027c0,0.256 -0.079,0.532 -0.177,0.651c-0.296,0.315 -1.202,2.937 -1.202,3.469c0,0.591 -0.434,1.636 -2.07,5.184c-0.355,0.769 -0.769,1.675 -0.887,2.03c-0.138,0.355 -0.434,0.808 -0.67,0.986c-0.217,0.197 -0.552,0.572 -0.71,0.867c-0.493,0.848 -1.616,2.129 -1.873,2.129c-0.138,0 -0.887,-0.867 -1.676,-1.932l-0.002,0.001zm2.543,-4.376c0.414,-0.434 0.986,-1.262 1.262,-1.814c1.34,-2.819 2.09,-4.475 2.306,-5.184c0.158,-0.434 0.473,-1.242 0.729,-1.814c0.256,-0.552 0.453,-1.104 0.453,-1.202s0.138,-0.453 0.315,-0.789c0.375,-0.749 0.552,-2.405 0.256,-2.405c-0.099,0 -0.158,-0.079 -0.079,-0.177c0.059,-0.118 -0.079,-0.375 -0.315,-0.572c-0.355,-0.335 -0.828,-0.414 -3.666,-0.532c-1.794,-0.079 -3.942,-0.079 -4.77,0c-0.828,0.099 -1.833,0.177 -2.267,0.217c-0.414,0.039 -0.926,0.217 -1.143,0.414c-0.355,0.315 -0.375,0.512 -0.256,1.833c0.079,1.005 0.276,1.695 0.572,2.168c0.237,0.375 0.69,1.321 0.986,2.07c0.315,0.769 0.729,1.518 0.926,1.675c0.177,0.158 0.473,0.946 0.65,1.735c0.493,2.208 2.227,5.165 3.016,5.165c0.138,0 0.591,-0.355 1.025,-0.788z" />
 </g>
</svg>