<svg width="1024" height="1024" xmlns="http://www.w3.org/2000/svg" version="1.1">
 <title>factions-chaos-khorne-daemons</title>

 <g>
  <title>Layer 1</title>
  <path id="svg_1" d="m905.525,148.05c0,12.4 0,24.825 0,37.225c-0.85,1.7 -2.35,3.375 -2.375,5.1c-0.175,9.325 -0.175,18.675 0.1,28c0.1,2.675 1.475,5.35 2.275,8c0,7.525 0,15.025 0,22.55c-1.9,3 -4.325,5.8 -5.575,9.025c-1.8,4.7 -4.8,6.5 -9.625,6.45c-7.825,-0.075 -15.625,-0.075 -23.425,0.1c-3.55,0.075 -8.175,2.125 -10.425,0.55c-5.725,-4 -11.525,-0.55 -17.175,-1.275c-6.45,-0.85 -13.35,2.725 -20.375,0.85c-0.85,-0.225 -2.025,0.025 -2.825,0.525c-5.225,2.875 -10.175,3.85 -14.825,-1.1c-0.625,-0.65 -2.025,-0.8 -3.075,-0.775c-8.075,0.075 -16.125,0.3 -24.2,0.4c-8.325,0.1 -16.625,0.1 -24.95,0.175c-8.175,0.075 -13.975,3.85 -18.725,10.525c-4.95,6.975 -10.675,13.4 -16.475,19.7c-15.675,17.225 -31.6,34.2 -47.325,51.4c-5.175,5.65 -10.05,11.575 -15.5,17.8c1.8,0.7 2.6,0.925 3.275,1.275c7.3,4.075 14.325,4.15 21.775,-0.1c1.825,-1.075 7.125,0.025 7.9,1.575c2.875,5.725 7.625,7.6 13.1,8.05c20.925,1.8 41.925,3.35 62.875,4.8c3.2,0.225 6.45,-0.25 9.7,-0.65c4.625,-0.55 9.25,-1.55 13.875,-1.9c16.075,-1.25 32.45,4.05 48.375,-2.025c0.575,-0.225 1.275,0 1.95,-0.025c11.45,-1.075 22.95,-2.1 34.4,-3.15c0.325,-0.025 0.625,-0.175 0.95,-0.225c6.425,-0.65 12.95,-2.275 19.275,-1.7c4.225,0.4 9.725,2.9 11.775,6.2c2.725,4.375 3.05,10.45 3.55,15.9c0.325,3.6 -1.15,7.35 -1.175,11.05c-0.25,15.825 -0.375,31.6 -0.225,47.425c0.025,1.95 2.025,3.825 3.125,5.75c0,3.275 0,6.525 0,9.8c-10.175,15.3 -20.4,30.575 -30.425,46c-1.825,2.825 -3.85,3.9 -7.15,3.925c-10.95,0.1 -21.85,0.45 -32.75,0.85c-21.475,0.775 -42.9,1.625 -64.375,2.375c-4.325,0.15 -8.675,0.025 -14.725,0.025c2.925,3.55 6.25,5.8 6.8,8.6c1.825,9.35 9.25,13.85 15.275,19.7c3.5,3.425 6.5,7.3 9.8,10.9c0.7,0.775 1.875,1.825 2.675,1.725c4.225,-0.55 5.15,2.125 6.125,5.275c0.575,1.9 1.75,3.825 3.125,5.325c4.05,4.6 9.4,7.625 14.025,11.425c6.575,5.4 11.6,12.725 17.3,19.225c1.725,1.95 3.3,4.05 5.25,5.75c3.975,3.525 8.4,6.575 12.175,10.275c4.1,4.05 7.55,8.775 11.525,13c11.525,12.15 23.225,24.125 34.75,36.275c1.15,1.175 2.125,3.075 2.125,4.65c0.225,24.125 0.25,48.2 0.375,72.325c0.075,13.975 -0.1,28 0.475,41.95c0.3,7.225 2.425,14.4 2.975,21.65c0.625,8.25 0.375,16.55 0.575,24.85c0.325,11.7 0.925,23.425 0.95,35.125c0,2.35 -1.275,5.575 -3.075,6.925c-9.4,7 -19.125,13.575 -28.825,20.125c-1.2,0.8 -3.075,0.875 -4.625,0.8c-11.2,-0.725 -22.35,-2.05 -33.55,-2.275c-12.525,-0.25 -25.1,-0.225 -37.575,0.95c-11.6,1.1 -23.025,4.3 -34.625,5.725c-11.425,1.4 -23.025,1.575 -32.925,8.675c-0.925,0.65 -2.525,0.375 -3.825,0.375c-36.775,-0.1 -73.525,-0.575 -110.2,3.35c-12.85,1.35 -26.025,0.7 -38.95,-0.15c-15.275,-0.95 -30.425,-3.15 -45.675,-4.7c-5.175,-0.525 -10.4,-1.075 -15.575,-1.025c-18.575,0.025 -37.15,0.3 -55.725,0.525c-27.675,0.325 -55.4,0.775 -83.075,1.025c-7,0.075 -14.05,0.325 -21,-0.45c-12.45,-1.4 -24.75,-4.375 -37.175,-5.075c-15.6,-0.875 -31.275,-0.375 -46.9,0.025c-13,0.325 -25.95,1.8 -38.9,2.025c-21.65,0.4 -43.325,0.025 -64.925,0.4c-8.8,0.15 -18.175,-1.625 -26.2,5.825c-4.175,-6.8 -11.45,-10.35 -10.875,-20.45c0.95,-16.05 -0.25,-32.225 -0.875,-48.375c-0.15,-3.625 -2.025,-7.15 -2.325,-10.8c-0.85,-10.5 -1.175,-21.075 -1.875,-31.575c-0.4,-6.325 -1.275,-12.6 -1.575,-18.9c-0.3,-6.025 1.275,-12.55 -0.6,-17.975c-3.35,-9.65 -2.35,-19.3 -2.5,-29c-0.025,-3.675 0.8,-7.375 1.35,-11.075c0.45,-3 1.475,-6.025 1.5,-9.025c0.175,-10.05 0.075,-20.125 0.075,-30c11.075,-2.975 17.975,-11.575 26.275,-17.875c5.9,-4.525 10.35,-11.025 15.35,-16.7c8.15,-9.275 16.375,-18.5 24.225,-27.975c9.55,-11.525 18.8,-23.275 28.125,-34.95c7.9,-9.875 15.375,-20.075 23.675,-29.625c5.275,-6.05 11.825,-11.05 17.575,-16.7c4.8,-4.7 9.325,-9.7 13.975,-14.525c-6.1,0.55 -8.6,-2.925 -11.2,-7.2c-2.925,-4.8 -8.15,-6.25 -13.625,-6.375c-2.75,-0.075 -5.55,0.1 -8.3,0.1c-25.45,0 -50.875,-0.025 -76.325,-0.075c-8.8,0 -17.625,0.025 -26.425,-0.1c-2.275,-0.025 -5.15,0.45 -5.625,-3.2c-0.575,-4.65 -1.775,-9.325 -1.875,-13.975c-0.525,-18.725 -0.85,-37.475 -1,-56.225c-0.15,-21.95 -0.025,-43.9 -0.025,-66.725c1,-0.225 3.125,-1.1 5.275,-1.175c7.975,-0.25 15.925,-0.25 23.925,-0.3c9.575,0 19.15,-0.075 28.75,0.1c8.25,0.15 16.525,0.875 24.825,0.875c8.6,0 17.15,-0.625 25.725,-0.95c19.7,-0.775 39.375,1.9 59.1,0.075c6.9,-0.65 13.975,0.175 20.95,0.55c7.2,0.375 14.35,1.1 21.5,1.475c2.05,0.1 4.15,-0.525 6.2,-0.8c1.25,-0.175 2.5,-0.625 3.7,-0.55c4.175,0.3 8.4,1.175 12.55,1.025c7.7,-0.25 15.375,-1.025 23.05,-1.625c0.875,-0.075 1.75,-0.375 4,-0.875c-31.05,-35.725 -61.45,-70.725 -91.925,-105.8c-1.4,0.875 -2.525,1.625 -3.85,2.45c-4,-6.175 -9.325,-10.5 -16.375,-10.725c-8.875,-0.225 -17.875,-1.4 -26.65,1.9c-3.125,1.175 -6.725,1.4 -10.125,1.425c-11.75,0.175 -23.45,0.4 -35.2,0.025c-12.7,-0.375 -25.7,2.825 -38.1,-2.675c-1.25,-0.55 -2.9,-0.225 -4.375,-0.225c-7.675,0 -15.35,0.15 -22.975,0c-6.8,-0.1 -9.025,-2.375 -9.075,-8.875c-0.025,-9.775 0.225,-19.575 0.025,-29.325c-0.625,-24.55 1.55,-49.2 -2.25,-73.675c-0.725,-4.6 -0.85,-9.275 -1.175,-13.25c7.75,-4.4 15.275,-4.925 23.025,-4.375c1.575,0.1 3.275,-0.225 4.8,-0.625c7.2,-1.8 14.4,-3.75 21.575,-5.5c1.075,-0.25 2.275,-0.075 3.425,-0.1c12.875,-0.075 25.775,0.225 38.625,-0.25c9.975,-0.4 19.9,-2.45 29.85,-2.575c34.25,-0.375 68.5,-0.225 102.7,-0.075c1.725,0 3.925,1.325 5.1,2.725c3.85,4.55 6.925,9.8 11.05,14.1c9.25,9.725 18.875,19.15 28.525,28.475c3.125,3 6.675,6.75 10.525,7.45c4.475,0.85 7.675,3.775 8.375,6.375c1.825,7 7.525,10.25 11.75,14.975s10.6,7.5 12.875,14.175c0.625,1.8 2.8,4.175 4.375,4.3c5.65,0.325 7.625,5.025 10.875,8.15c2.525,2.45 4.375,5.575 6.75,8.225c5.725,6.35 11.575,12.625 17.4,18.875c4.1,4.375 8.225,8.775 12.6,12.875c2.25,2.125 5.55,3.275 7.525,5.55c6.2,7.15 7.75,7.7 16.075,3.75c0.475,5.4 2.525,8.175 8.05,4.6c0.325,-0.225 0.95,-0.025 1.425,0c11.425,0.725 18.425,-3.6 23.825,-13.725c3.45,-6.45 7.5,-12.55 15.825,-13.9c2.2,-0.375 4.375,-2.175 6.1,-3.825c9.275,-8.925 18.325,-18.1 27.675,-26.95c6.025,-5.7 12.8,-10.6 18.725,-16.45c8.775,-8.675 15.7,-19.1 26.2,-26.125c3.975,-2.675 7.2,-6.525 10.45,-10.125c2.825,-3.125 5.325,-6.575 7.825,-10.025c6.675,-9.175 13.8,-18.1 19.75,-27.725c6.35,-10.325 9.075,-11.775 20.25,-7.225c0.775,0.3 1.425,0.85 2.25,1c3.6,0.8 7.2,1.975 10.825,2.2c17.325,1 34.65,-0.25 52.075,2.2c18.825,2.675 38.2,4.025 57.15,-1.15c1.25,-0.325 2.6,-0.25 3.9,-0.25c21,0 42,0 63.725,0c3.525,6.025 7.375,12.8 11.375,19.5c2.025,3.475 4.3,6.75 6.5,10.1l0.15,0.05zm-556.975,527.1c-2.925,3.675 -5.5,7 -8.15,10.25c-2.925,3.55 -3.9,7.525 -2.275,11.9c1.725,4.55 5.25,6.875 10.1,7.35c6.975,0.7 13.725,0.725 20.775,-0.95c5.475,-1.325 11.575,0.1 17.4,0.15c20.7,0.15 41.375,0.4 62.075,0.3c13.175,-0.075 26.575,0.525 39.5,-1.475c14.2,-2.175 28.125,-3.05 42.1,0.075c19.5,4.325 39.25,2.45 58.875,2.5c7.075,0.025 14.175,-1.825 21.25,-1.975c23.45,-0.55 46.9,-0.7 70.375,-1.1c6.825,-0.1 11.975,-3.2 14.45,-9.725c2.45,-6.5 0.7,-12.125 -4.3,-16.875c-0.95,-0.925 -1.95,-2.35 -1.975,-3.55c-0.1,-7.925 -3.85,-13.475 -10.325,-17.775c-4.7,-3.125 -9.975,-6.05 -13.35,-10.35c-7.525,-9.5 -14.425,-19.525 -20.8,-29.85c-8.45,-13.65 -18.25,-25.925 -30.5,-36.375c-12.125,-10.35 -23.65,-21.4 -35.325,-32.275c-4.85,-4.525 -10.05,-8.875 -13.775,-14.25c-8.375,-12 -15.35,-24.95 -25.775,-35.5c-8.675,-8.725 -16.95,-11.775 -26.825,-5.225c-4.85,3.225 -8.95,6.275 -10.4,12.175c-0.4,1.65 -1.475,3.3 -2.65,4.625c-3.75,4.175 -7.675,8.25 -11.575,12.325c-14.875,15.45 -29.725,30.9 -44.625,46.325c-9.475,9.825 -19.1,19.525 -28.4,29.55c-3.275,3.5 -5.55,7.925 -8.725,11.5c-2.35,2.65 -5.7,4.4 -8.125,6.975c-6.675,7.125 -13.025,14.525 -19.675,21.7c-3.05,3.3 -6.675,6.05 -9.7,9.4c-4.45,4.925 -8.475,10.2 -12.8,15.2c-4.15,4.775 -8.525,9.4 -13.275,14.6c2.575,0.175 4.25,0.3 6.425,0.375l0,-0.025z" />
 </g>
</svg>