<svg width="32" height="32" xmlns="http://www.w3.org/2000/svg" version="1.1">
 <title>factions-chaos-darkoath-savagers</title>

 <g>
  <title>Layer 1</title>
  <path id="svg_1" d="m19.68,29.347c0.017,0.533 0.033,1.068 0,1.6c-0.02,0.324 -0.16,0.64 -0.16,0.96c0,0.311 0.61,-0.233 0.8,-0.48c0.702,-0.913 0.966,-1.643 0.8,-2.72c-0.051,-0.333 -0.027,-0.793 -0.32,-0.96c-0.249,-0.143 -0.635,0.085 -0.8,0.32c-0.252,0.36 -0.288,0.841 -0.32,1.28zm-2.24,2.56c0.248,-0.351 0.504,-0.712 0.64,-1.12c0.096,-0.287 -0.042,-1.32 -0.16,-1.585c-0.11,-0.247 -0.236,-0.773 -0.48,-0.655c-0.366,0.177 -0.381,0.726 -0.48,1.12c-0.187,0.746 0.27,1.609 0.48,2.24zm-3.68,-0.48l0.96,0.48l0,-1.92l-0.32,-0.785l-0.48,-0.495l-0.48,0.64l0,1.28l0.32,0.8zm-2.08,0l0.8,0.32l0,-2.08l-0.32,-0.96l-0.48,-0.64l-0.8,1.135l0.32,1.425l0.48,0.8zm4,0.32l0.48,-0.64l0.16,-0.64l-0.16,-0.64l-0.48,-0.16l0,2.08zm-9.6,-13.027c-0.079,0.129 -0.173,0.284 -0.32,0.32c-0.325,0.079 -0.874,-0.308 -1.003,0c-0.898,2.148 0.49,3.428 1.803,4.64c0.277,0.256 0.423,0.8 0.8,0.8c0.267,0 -0.167,-0.592 0,-0.8c0.133,-0.167 0.489,0.151 0.64,0c0.103,-0.103 -0.211,-1.12 0.32,-1.12c0.967,0 0.562,0.681 1.44,1.12c0.239,0.119 0.725,-0.256 0.8,0c0.126,0.428 -0.414,3.095 0.48,3.84c0.148,0.123 0.295,-0.267 0.48,-0.32c0.281,-0.08 1.117,-0.006 1.28,0.32c0.143,0.286 -0.143,0.674 0,0.96c0.072,0.143 0.367,0.113 0.48,0c0.097,-0.097 0.486,-1.518 1.12,-1.28c1.024,0.384 0.019,1.196 0.96,1.76c0.194,0.116 0.254,-0.48 0.48,-0.48s0.286,0.596 0.48,0.48c0.289,-0.174 0.133,-0.679 0.32,-0.96c0.035,-0.052 1.113,-0.871 1.28,-0.8c0.614,0.263 0.292,1.76 0.96,1.76c0.47,0 0.458,-1.605 0.8,-1.76c1.891,-0.86 0.981,-1.499 1.44,-3.52c0.059,-0.26 0.561,0.119 0.8,0s0.291,-0.451 0.48,-0.64c0.725,-0.725 0.875,-0.516 1.76,0c0.295,0.172 0.634,0.341 0.8,0.64c0.129,0.233 -0.244,0.908 0,0.8c1.954,-0.868 1.141,-1.513 1.76,-3.04c0.089,-0.219 0.461,-0.252 0.523,-0.48c0.341,-1.25 0.129,-1.332 -0.843,-1.92c-0.164,-0.1 -0.428,-0.135 -0.48,-0.32c-0.23,-0.829 -0.146,-1.718 -0.32,-2.56c-0.512,-2.474 -1.78,-4.728 -3.68,-6.4c-0.689,-0.606 -1.425,-1.178 -2.24,-1.6c-0.749,-0.387 -1.877,-0.139 -2.4,-0.8c-0.284,-0.359 -1.272,-7.292 -1.44,-7.04c-1.387,2.08 -0.573,5.015 -1.44,7.36c-0.148,0.4 -0.875,-0.135 -1.28,0c-1.421,0.474 -3.997,2.414 -4.8,3.36c-0.758,0.893 -1.432,1.916 -1.76,3.04c-0.435,1.493 -0.458,3.085 -0.48,4.64zm8.8,4.8c-0.026,-0.372 -0.053,-0.75 0,-1.12c0.055,-0.384 0.105,-0.797 0.32,-1.12c0.306,-0.46 0.974,-0.394 1.28,0c0.125,0.161 0.941,1.911 0.48,2.24c-0.316,0.226 -0.732,-0.32 -1.12,-0.32c-0.337,0 -0.66,0.166 -0.96,0.32zm-3.84,-3.2c-0.194,-0.243 -0.398,-0.5 -0.48,-0.8c-0.084,-0.309 -0.112,-0.66 0,-0.96c0.068,-0.18 0.32,-0.427 0.48,-0.32c0.444,0.296 0.603,0.884 0.96,1.28c0.129,0.143 0.381,0.155 0.48,0.32c0.082,0.137 0.063,0.333 0,0.48c-0.105,0.245 -0.213,0.64 -0.48,0.64c-0.385,0 -0.703,-0.354 -0.96,-0.64zm8.16,0.32c0.013,-0.22 0.028,-0.464 0.16,-0.64c0.064,-0.085 0.221,0.04 0.32,0c0.425,-0.17 0.748,-0.579 0.96,-0.96c0.14,-0.251 0.033,-0.8 0.32,-0.8c0.311,0 0.382,0.505 0.48,0.8c0.187,0.56 -0.1,0.504 -0.48,0.96c-0.153,0.183 -0.096,0.559 -0.32,0.64c-0.451,0.164 -0.966,0.079 -1.44,0z" />
 </g>
</svg>