<svg width="32" height="32" xmlns="http://www.w3.org/2000/svg" version="1.1">
 <title>factions-chaos-iron-golems</title>

 <g>
  <title>Layer 1</title>
  <path id="svg_1" d="m1.401,17.873c0.152,0 0.307,0.015 0.457,-0.003c0.437,-0.05 0.873,-0.125 1.312,-0.167c0.487,-0.046 0.975,-0.069 1.464,-0.096c0.382,-0.022 0.751,-0.09 1.123,-0.19c0.426,-0.114 0.877,-0.141 1.317,-0.195c0.196,-0.024 0.398,-0.008 0.593,-0.04c0.207,-0.035 0.254,-0.131 0.257,-0.339c0.004,-0.296 0.023,-0.59 0.039,-0.886c0.016,-0.307 -0.027,-0.589 -0.187,-0.866c-0.198,-0.34 -0.157,-0.728 -0.132,-1.104c0.011,-0.16 0.035,-0.32 0.059,-0.48c0.019,-0.118 -0.023,-0.176 -0.144,-0.171c-0.23,0.012 -0.464,0.007 -0.691,0.043c-0.611,0.1 -1.208,-0.026 -1.811,-0.074c-0.636,-0.051 -1.275,-0.094 -1.91,0.065c-0.223,0.056 -0.464,0.039 -0.698,0.056c-0.005,-0.022 -0.009,-0.044 -0.015,-0.066c0.183,-0.059 0.362,-0.14 0.549,-0.174c0.763,-0.133 1.525,-0.265 2.292,-0.367c0.382,-0.051 0.772,-0.039 1.16,-0.056c0.226,-0.009 0.451,-0.022 0.677,-0.028c0.121,-0.004 0.192,-0.061 0.208,-0.18c0.026,-0.186 0.074,-0.355 0.226,-0.484c0.027,-0.023 0.027,-0.102 0.012,-0.148c-0.052,-0.169 -0.106,-0.338 -0.179,-0.499c-0.024,-0.054 -0.102,-0.113 -0.157,-0.116c-0.326,-0.019 -0.43,0.062 -0.573,0.354c-0.043,0.087 -0.141,0.147 -0.214,0.219c-0.066,-0.091 -0.151,-0.176 -0.19,-0.278c-0.027,-0.071 -0.004,-0.171 0.02,-0.252c0.106,-0.361 0.213,-0.722 0.339,-1.075c0.043,-0.118 0.128,-0.241 0.229,-0.316c0.219,-0.167 0.304,-0.412 0.421,-0.639c0.018,-0.034 -0.016,-0.102 -0.04,-0.145c-0.082,-0.141 -0.061,-0.273 -0.026,-0.429c0.11,-0.508 0.374,-0.952 0.615,-1.392c0.34,-0.62 0.406,-1.282 0.472,-1.956c0.034,-0.343 0.065,-0.685 0.095,-1.028c0.02,-0.221 0.163,-0.284 0.424,-0.179c-0.081,0.202 -0.039,0.401 -0.013,0.611c0.082,0.677 0.26,1.34 0.278,2.027c0.008,0.295 0.133,0.584 0.19,0.88c0.028,0.147 0.051,0.307 0.022,0.448c-0.093,0.447 0.075,0.837 0.23,1.231c0.122,0.309 0.27,0.608 0.301,0.947c0.013,0.147 0.117,0.202 0.262,0.203c0.055,0 0.145,0.039 0.157,0.079c0.031,0.101 -0.051,0.128 -0.14,0.147c-0.157,0.034 -0.317,0.069 -0.465,0.126c-0.075,0.03 -0.168,0.104 -0.186,0.174c-0.1,0.412 -0.19,0.827 -0.258,1.244c-0.038,0.229 0.036,0.269 0.256,0.196c0.105,-0.035 0.219,-0.058 0.33,-0.061c0.404,-0.008 0.807,-0.001 1.211,-0.008c0.439,-0.008 0.759,-0.219 0.987,-0.588c0.067,-0.109 0.149,-0.211 0.233,-0.308c0.078,-0.09 0.168,-0.075 0.204,0.04c0.047,0.148 0.087,0.3 0.106,0.452c0.038,0.299 0.11,0.381 0.408,0.375c0.624,-0.009 1.25,-0.004 1.871,-0.043c0.428,-0.027 0.441,0.027 0.34,-0.418c-0.094,-0.418 0.036,-0.819 0.038,-1.25c-0.035,0 -0.093,0.009 -0.145,-0.003c-0.086,-0.02 -0.183,-0.036 -0.249,-0.087c-0.101,-0.077 -0.199,-0.175 -0.168,-0.326c0.031,-0.153 0.167,-0.165 0.285,-0.198c0.129,-0.036 0.258,-0.069 0.393,-0.104c-0.137,-0.362 -0.335,-0.671 -0.589,-0.943c-0.036,-0.039 -0.144,-0.048 -0.198,-0.024c-0.316,0.14 -0.56,0.377 -0.783,0.635c-0.026,0.03 -0.028,0.078 -0.039,0.118c-0.031,0.117 -0.178,0.213 -0.303,0.184c-0.137,-0.031 -0.129,-0.143 -0.109,-0.246c0.018,-0.089 0.032,-0.188 0.082,-0.258c0.239,-0.342 0.357,-0.733 0.46,-1.127c0.046,-0.175 0.12,-0.305 0.292,-0.397c0.265,-0.141 0.284,-0.258 0.126,-0.511c-0.13,-0.211 -0.1,-0.429 -0.042,-0.654c0.199,-0.782 0.444,-1.548 0.736,-2.3c0.067,-0.175 0.126,-0.348 0.042,-0.545c-0.058,-0.135 0.144,-0.379 0.321,-0.396c0.133,-0.012 0.164,-0.074 0.179,-0.194c0.04,-0.335 0.101,-0.669 0.147,-1.002c0.048,-0.35 0.087,-0.702 0.135,-1.052c0.009,-0.074 0.026,-0.151 0.056,-0.218c0.117,-0.257 0.139,-0.525 0.121,-0.803c-0.013,-0.213 0.085,-0.291 0.272,-0.223c0.044,0.016 0.094,0.07 0.108,0.117c0.087,0.316 0.174,0.632 0.243,0.952c0.024,0.113 0.011,0.235 0.001,0.352c-0.003,0.036 -0.046,0.075 -0.081,0.1c-0.038,0.028 -0.101,0.03 -0.126,0.063c-0.062,0.081 -0.16,0.182 -0.148,0.261c0.011,0.071 0.14,0.164 0.229,0.179c0.316,0.051 0.483,0.227 0.581,0.526c0.089,0.273 0.226,0.53 0.348,0.791c0.067,0.143 0.016,0.363 -0.118,0.46c-0.149,0.106 -0.153,0.178 -0.02,0.308c0.023,0.023 0.046,0.05 0.074,0.062c0.292,0.117 0.402,0.37 0.484,0.646c0.14,0.468 0.291,0.934 0.421,1.404c0.086,0.309 0.147,0.627 0.21,0.942c0.015,0.07 0.02,0.164 -0.015,0.218c-0.098,0.152 -0.081,0.303 -0.05,0.465c0.126,0.667 0.288,1.322 0.631,1.92c0.047,0.082 0.071,0.179 0.094,0.273c0.032,0.132 -0.03,0.192 -0.163,0.19c-0.239,-0.005 -0.468,-0.061 -0.639,-0.23c-0.343,-0.339 -0.67,-0.695 -1.005,-1.044c-0.051,-0.052 -0.104,-0.114 -0.168,-0.141c-0.105,-0.046 -0.176,-0.036 -0.213,0.116c-0.071,0.296 -0.182,0.584 -0.278,0.873c-0.071,0.213 -0.056,0.237 0.151,0.323c0.066,0.027 0.114,0.1 0.169,0.152c-0.047,0.044 -0.086,0.108 -0.141,0.13c-0.113,0.047 -0.137,0.117 -0.109,0.229c0.038,0.151 0.062,0.305 0.096,0.457c0.024,0.106 0.034,0.202 -0.034,0.307c-0.03,0.047 -0.005,0.164 0.036,0.215c0.121,0.151 0.174,0.307 0.116,0.494c-0.043,0.14 0.019,0.184 0.152,0.182c0.823,-0.018 1.645,-0.035 2.468,-0.046c0.172,-0.003 0.261,-0.078 0.313,-0.238c0.075,-0.226 0.118,-0.471 0.324,-0.666c0.036,0.069 0.073,0.125 0.097,0.186c0.07,0.175 0.136,0.35 0.199,0.527c0.04,0.112 0.113,0.157 0.23,0.161c0.827,0.028 1.656,0.061 2.483,0.09c0.178,0.007 0.209,-0.022 0.213,-0.198c0.003,-0.097 -0.013,-0.196 0.003,-0.291c0.074,-0.441 -0.071,-0.837 -0.249,-1.225c-0.023,-0.05 -0.096,-0.086 -0.153,-0.108c-0.047,-0.018 -0.108,-0.008 -0.16,0.001c-0.198,0.035 -0.334,-0.043 -0.439,-0.242c0.101,-0.032 0.202,-0.055 0.296,-0.095c0.175,-0.075 0.361,-0.137 0.514,-0.245c0.151,-0.106 0.113,-0.233 -0.063,-0.292c-0.32,-0.109 -0.508,-0.429 -0.448,-0.76c0.077,-0.417 0.152,-0.834 0.226,-1.252c0.034,-0.191 0.141,-0.303 0.324,-0.359c0.249,-0.077 0.264,-0.094 0.25,-0.354c-0.028,-0.566 -0.023,-1.131 0.069,-1.69c0.116,-0.704 0.261,-1.403 0.401,-2.103c0.013,-0.066 0.083,-0.12 0.128,-0.179c0.013,0.007 0.028,0.012 0.042,0.019c0.02,0.174 0.032,0.348 0.062,0.521c0.074,0.432 0.238,0.845 0.233,1.295c-0.003,0.184 0.043,0.375 0.102,0.553c0.065,0.196 0.149,0.393 0.262,0.565c0.235,0.362 0.4,0.745 0.461,1.174c0.016,0.11 0.089,0.214 0.139,0.317c0.046,0.097 0.097,0.191 0.164,0.321c-0.102,-0.009 -0.148,-0.012 -0.194,-0.018c-0.254,-0.035 -0.43,0.179 -0.326,0.412c0.023,0.05 0.118,0.081 0.184,0.094c0.347,0.066 0.638,0.219 0.858,0.515c-0.133,0.136 -0.087,0.273 -0.004,0.418c0.249,0.439 0.492,0.881 0.733,1.325c0.034,0.062 0.05,0.147 0.04,0.215c-0.008,0.052 -0.061,0.121 -0.109,0.14c-0.039,0.015 -0.124,-0.018 -0.151,-0.056c-0.128,-0.183 -0.303,-0.176 -0.492,-0.149c-0.245,0.035 -0.49,0.067 -0.734,0.095c-0.171,0.02 -0.334,0.078 -0.395,0.239c-0.18,0.475 -0.338,0.958 -0.517,1.473c0.358,0.044 0.67,0.109 0.983,0.117c0.962,0.023 1.924,0.028 2.887,0.031c0.188,0.001 0.328,0.063 0.459,0.23c-0.126,0.011 -0.23,0.026 -0.335,0.028c-1.108,0.024 -2.215,0.048 -3.324,0.069c-0.151,0.003 -0.301,-0.013 -0.452,-0.02c-0.11,-0.005 -0.155,0.042 -0.139,0.156c0.061,0.444 0.062,0.886 0.013,1.334c-0.042,0.378 -0.008,0.764 -0.048,1.143c-0.038,0.361 -0.083,0.713 0.001,1.072c0.017,0.073 -0.038,0.161 -0.056,0.242c-0.016,0.065 -0.03,0.129 -0.043,0.194c0.065,0.013 0.132,0.046 0.195,0.039c1.161,-0.12 2.323,-0.012 3.484,-0.019c0.687,-0.004 1.376,0.056 2.064,0.089c0.191,0.009 0.363,0.063 0.521,0.223c-0.075,0 -0.125,0 -0.178,0c-0.005,0.058 -0.009,0.105 -0.013,0.155c-0.558,-0.016 -1.11,-0.039 -1.66,-0.043c-0.241,-0.003 -0.482,0.034 -0.724,0.052c-0.702,0.054 -1.403,0.108 -2.105,0.16c-0.519,0.039 -1.038,0.075 -1.558,0.112c-0.163,0.011 -0.238,0.077 -0.241,0.238c-0.005,0.483 0,0.967 -0.008,1.45c-0.005,0.257 -0.038,0.514 -0.046,0.771c-0.004,0.143 0.017,0.287 0.027,0.43c0.009,0.169 0.032,0.34 0.024,0.51c-0.013,0.27 0.128,0.434 0.394,0.393c1.048,-0.161 2.102,-0.093 3.154,-0.1c0.608,-0.004 1.216,-0.031 1.823,-0.031c0.256,0 0.512,0.042 0.767,0.077c0.07,0.009 0.133,0.065 0.226,0.113c-0.054,0.024 -0.066,0.035 -0.079,0.036c-0.686,0.051 -1.371,0.116 -2.058,0.145c-0.599,0.026 -1.185,0.105 -1.776,0.2c-0.592,0.096 -1.2,0.096 -1.8,0.144c-0.133,0.011 -0.265,0.044 -0.395,0.074s-0.196,0.117 -0.175,0.249c0.14,0.842 0.169,1.69 0.141,2.541c-0.004,0.102 0.028,0.217 0.075,0.309c0.204,0.402 0.254,0.823 0.221,1.268c-0.036,0.478 -0.046,0.956 -0.071,1.434c-0.011,0.211 -0.042,0.418 -0.186,0.589c-0.121,0.143 -0.169,0.148 -0.324,0.044c-0.075,-0.051 -0.155,-0.097 -0.23,-0.148c-0.137,-0.094 -0.262,-0.11 -0.413,-0.007c-0.196,0.133 -0.441,0.027 -0.483,-0.209c-0.027,-0.151 -0.047,-0.317 -0.009,-0.463c0.129,-0.507 0.069,-1.016 0.056,-1.525c-0.013,-0.57 -0.038,-1.139 -0.05,-1.71c-0.015,-0.656 -0.019,-1.313 -0.035,-1.968c-0.001,-0.071 -0.042,-0.199 -0.077,-0.203c-0.12,-0.015 -0.27,-0.026 -0.361,0.035s-0.164,0.077 -0.261,0.079c-0.207,0.007 -0.414,0.03 -0.621,0.028c-0.198,-0.001 -0.397,-0.024 -0.595,-0.04c-0.172,-0.013 -0.343,-0.031 -0.514,-0.044c-0.172,-0.012 -0.207,0.031 -0.2,0.199c0.001,0.055 -0.026,0.124 -0.062,0.167c-0.062,0.073 -0.139,0.135 -0.215,0.194c-0.155,0.12 -0.26,0.086 -0.332,-0.101c-0.051,-0.131 -0.09,-0.266 -0.159,-0.386c-0.032,-0.056 -0.117,-0.086 -0.182,-0.12c-0.026,-0.012 -0.065,-0.004 -0.096,0.001c-0.367,0.061 -0.717,-0.001 -1.079,-0.09c-0.506,-0.124 -1.026,-0.091 -1.532,0.05c-0.036,0.009 -0.083,0.071 -0.082,0.106c0.015,0.304 0.038,0.608 0.062,0.911c0.009,0.122 0.028,0.245 0.042,0.367c0.027,0.234 0.043,0.469 0.081,0.701c0.03,0.183 0.005,0.347 -0.07,0.517c-0.046,0.102 -0.074,0.227 -0.062,0.338c0.061,0.593 0.14,1.184 0.204,1.777c0.016,0.148 0.078,0.198 0.225,0.209c0.299,0.02 0.599,0.046 0.893,0.098c0.174,0.031 0.308,0.144 0.363,0.377c-0.307,0 -0.595,-0.003 -0.884,0.001c-0.14,0.003 -0.278,0.022 -0.418,0.027c-0.113,0.004 -0.152,0.062 -0.14,0.167c0.04,0.352 0.079,0.705 0.12,1.057c0.004,0.042 0.009,0.085 0.008,0.126c-0.008,0.223 -0.04,0.448 -0.026,0.67c0.04,0.566 -0.071,1.114 -0.183,1.66c-0.073,0.351 -0.304,0.514 -0.597,0.49c-0.366,-0.03 -0.669,-0.297 -0.706,-0.64c-0.012,-0.11 0.001,-0.225 0.016,-0.336c0.028,-0.21 -0.013,-0.397 -0.167,-0.547c-0.089,-0.087 -0.126,-0.172 -0.069,-0.301c0.028,-0.062 0.02,-0.163 -0.012,-0.225c-0.07,-0.133 -0.07,-0.249 0.004,-0.379c0.132,-0.229 0.031,-0.456 -0.227,-0.492c-0.182,-0.026 -0.297,-0.098 -0.352,-0.277c-0.02,-0.063 -0.078,-0.114 -0.114,-0.174c-0.087,-0.143 -0.059,-0.192 0.101,-0.234c0.075,-0.02 0.171,-0.058 0.206,-0.118c0.101,-0.172 0.018,-0.326 -0.183,-0.343c-0.277,-0.023 -0.557,-0.019 -0.833,-0.052c-0.094,-0.011 -0.209,-0.082 -0.258,-0.16c-0.055,-0.086 0.054,-0.102 0.121,-0.112c0.383,-0.054 0.768,-0.102 1.149,-0.163c0.056,-0.009 0.144,-0.075 0.148,-0.122c0.044,-0.486 0.128,-0.975 0.012,-1.461c-0.042,-0.178 -0.129,-0.35 -0.221,-0.51c-0.082,-0.143 -0.071,-0.288 0.085,-0.359c0.133,-0.061 0.133,-0.131 0.095,-0.254c-0.04,-0.131 -0.062,-0.276 -0.052,-0.412c0.023,-0.332 0.078,-0.662 0.1,-0.994c0.016,-0.25 0.001,-0.503 -0.001,-0.755c-0.001,-0.104 -0.067,-0.143 -0.159,-0.141c-0.299,0.008 -0.597,-0.04 -0.896,0.055c-0.125,0.04 -0.284,-0.024 -0.428,-0.036c-0.379,-0.034 -0.759,-0.081 -1.138,-0.094c-0.311,-0.011 -0.484,0.206 -0.457,0.522c0.004,0.043 0.022,0.087 0.013,0.128c-0.013,0.075 -0.039,0.149 -0.061,0.223c-0.078,-0.026 -0.161,-0.039 -0.231,-0.078c-0.059,-0.034 -0.1,-0.097 -0.151,-0.144c-0.055,-0.051 -0.106,-0.113 -0.172,-0.144c-0.137,-0.067 -0.157,-0.157 -0.104,-0.291c0.067,-0.165 0.043,-0.21 -0.132,-0.211c-0.434,-0.003 -0.87,0.005 -1.305,0.008c-0.145,0.001 -0.291,0.001 -0.434,-0.001c-0.132,-0.003 -0.233,0.048 -0.229,0.19c0.018,0.639 0.044,1.278 0.067,1.917c0.001,0.027 0.001,0.059 0.018,0.078c0.248,0.292 0.133,0.648 0.174,0.977c0.056,0.463 0.098,0.928 0.147,1.404c0.004,0 -0.031,-0.008 -0.052,0.005c-0.054,0.034 -0.102,0.077 -0.152,0.116c0.05,0.03 0.098,0.059 0.148,0.087c0.008,0.005 0.027,-0.003 0.031,0.003c0.048,0.056 0.121,0.108 0.137,0.172c0.035,0.137 0.165,0.28 0.034,0.42c-0.031,0.032 -0.155,0.03 -0.194,-0.004c-0.291,-0.254 -0.612,-0.304 -0.979,-0.209c-0.122,0.031 -0.27,0.011 -0.394,-0.027c-0.208,-0.063 -0.332,-0.214 -0.324,-0.445c0.004,-0.102 0.013,-0.203 0.02,-0.305c0.019,-0.277 0.048,-0.556 0.055,-0.833c0.008,-0.371 -0.003,-0.741 -0.001,-1.112c0,-0.165 -0.004,-0.327 0.086,-0.483c0.044,-0.077 0.042,-0.188 0.039,-0.284c-0.012,-0.457 -0.034,-0.913 -0.05,-1.371c-0.007,-0.19 -0.023,-0.206 -0.208,-0.178c-1.287,0.196 -2.579,0.354 -3.885,0.317c-0.307,-0.008 -0.613,0.007 -0.92,0.022c-0.235,0.012 -0.433,-0.061 -0.599,-0.225c-0.024,-0.024 -0.042,-0.056 -0.062,-0.085c0.034,-0.019 0.067,-0.05 0.104,-0.052c0.343,-0.031 0.686,-0.058 1.029,-0.086c0.943,-0.081 1.885,-0.169 2.829,-0.241c0.478,-0.035 0.956,-0.039 1.435,-0.055c0.211,-0.007 0.226,-0.039 0.229,-0.247c0.004,-0.514 -0.003,-1.026 0.055,-1.54c0.065,-0.576 0.067,-1.16 0.091,-1.739c0.008,-0.194 -0.04,-0.239 -0.23,-0.246c-0.383,-0.013 -0.761,-0.003 -1.131,0.128c-0.222,0.078 -0.434,0.044 -0.616,-0.122c-0.038,-0.034 -0.091,-0.061 -0.141,-0.069c-0.27,-0.046 -0.541,-0.101 -0.812,-0.12c-0.2,-0.013 -0.409,0.005 -0.607,0.044c-0.23,0.044 -0.456,0.087 -0.682,0.004c-0.443,-0.163 -0.899,-0.126 -1.355,-0.12c-0.257,0.004 -0.514,-0.016 -0.769,-0.043c-0.095,-0.009 -0.187,-0.067 -0.281,-0.104c0.004,-0.007 0.007,-0.023 0.009,-0.038l0.001,0.006zm18.372,-1.386c0.015,-0.003 0.03,-0.005 0.044,-0.008c0.016,0.035 0.038,0.07 0.046,0.108c0.034,0.141 0.073,0.282 0.09,0.425c0.016,0.124 0.077,0.167 0.192,0.163c0.081,-0.003 0.161,0.001 0.242,0.003c0.802,0.003 1.602,0.004 2.404,0.008c0.105,0 0.198,0.007 0.219,-0.144c0.061,-0.425 0.133,-0.847 0.204,-1.271c0.073,-0.428 0.199,-0.846 0.16,-1.29c-0.032,-0.374 -0.038,-0.751 -0.054,-1.127c-0.005,-0.113 -0.007,-0.226 -0.015,-0.338c-0.007,-0.097 -0.054,-0.155 -0.161,-0.164c-0.242,-0.02 -0.482,-0.042 -0.71,0.075c-0.048,0.026 -0.114,0.024 -0.172,0.023c-0.451,-0.007 -0.901,-0.019 -1.352,-0.023c-0.221,-0.001 -0.237,0.022 -0.172,0.233c0.042,0.137 0.023,0.222 -0.133,0.266c-0.075,0.022 -0.135,0.101 -0.198,0.157c-0.055,0.05 -0.1,0.116 -0.16,0.159c-0.132,0.091 -0.211,0.051 -0.221,-0.109c-0.007,-0.118 0.004,-0.237 -0.004,-0.355c-0.015,-0.207 -0.136,-0.343 -0.309,-0.347c-0.436,-0.008 -0.872,-0.018 -1.297,0.102c-0.206,0.058 -0.4,0.056 -0.585,-0.074c-0.059,-0.042 -0.139,-0.067 -0.211,-0.07c-0.284,-0.015 -0.569,-0.022 -0.853,-0.024c-0.117,-0.001 -0.163,0.07 -0.135,0.183c0.026,0.104 0.061,0.206 0.083,0.311c0.082,0.386 0.106,0.764 -0.141,1.112c-0.062,0.087 -0.089,0.207 -0.104,0.316c-0.038,0.264 -0.046,0.531 -0.089,0.794c-0.069,0.409 -0.074,0.8 0.167,1.164c0.054,0.082 0.082,0.187 0.102,0.285c0.024,0.117 0.083,0.161 0.199,0.161c0.876,0.007 1.753,0.016 2.628,0.027c0.118,0.001 0.178,-0.044 0.195,-0.163c0.027,-0.19 0.065,-0.378 0.098,-0.568l0.003,0zm-3.614,2.948c0.083,0.765 0.159,1.45 0.233,2.133c0.013,0.125 0.087,0.167 0.21,0.171c0.759,0.017 1.516,0.042 2.273,0.061c0.135,0.004 0.269,0.001 0.402,-0.013c0.261,-0.028 0.342,-0.122 0.365,-0.382c0.009,-0.1 0.024,-0.204 0.062,-0.296s0.106,-0.171 0.161,-0.257c0.094,0.073 0.192,0.141 0.28,0.221c0.028,0.026 0.028,0.081 0.048,0.117c0.056,0.101 0.1,0.215 0.179,0.295c0.245,0.247 0.556,0.303 0.892,0.278c0.478,-0.035 0.955,-0.063 1.433,-0.085c0.151,-0.007 0.206,-0.055 0.204,-0.213c-0.008,-0.666 -0.016,-1.333 -0.001,-1.999c0.009,-0.429 0.059,-0.858 0.089,-1.287c0.013,-0.182 -0.027,-0.223 -0.183,-0.227c-0.413,-0.012 -0.826,-0.027 -1.239,-0.046c-0.449,-0.02 -0.9,-0.047 -1.349,-0.071c-0.141,-0.008 -0.203,0.054 -0.242,0.196c-0.035,0.126 -0.112,0.254 -0.203,0.351c-0.086,0.091 -0.183,0.048 -0.207,-0.077c-0.019,-0.1 -0.024,-0.203 -0.02,-0.304c0.004,-0.117 -0.042,-0.163 -0.157,-0.169c-0.913,-0.048 -1.824,-0.052 -2.735,0.059c-0.217,0.027 -0.25,0.063 -0.272,0.28c-0.019,0.192 -0.032,0.386 -0.069,0.576c-0.044,0.254 -0.112,0.507 -0.153,0.689l-0.001,-0.001zm-4.621,-2.765c0.09,0.153 0.18,0.3 0.261,0.451c0.048,0.09 0.106,0.136 0.214,0.135c0.962,-0.015 1.925,-0.027 2.887,-0.036c0.114,-0.001 0.168,-0.048 0.163,-0.165c-0.013,-0.355 -0.032,-0.709 -0.032,-1.064c0,-0.418 -0.004,-0.838 0.031,-1.255c0.035,-0.408 0.09,-0.81 -0.003,-1.217c-0.03,-0.13 -0.011,-0.278 0.015,-0.413c0.034,-0.18 0.011,-0.229 -0.172,-0.226c-0.28,0.003 -0.56,0.004 -0.838,0.019c-0.133,0.007 -0.28,0.013 -0.391,0.074c-0.186,0.101 -0.37,0.087 -0.562,0.07c-0.108,-0.009 -0.217,-0.031 -0.32,-0.018c-0.067,0.008 -0.152,0.056 -0.186,0.112c-0.073,0.117 -0.106,0.258 -0.176,0.378c-0.039,0.065 -0.114,0.137 -0.183,0.149c-0.149,0.027 -0.425,-0.266 -0.405,-0.418c0.016,-0.122 -0.036,-0.172 -0.147,-0.178c-0.054,-0.003 -0.108,0.004 -0.16,0.008c-0.311,0.023 -0.627,0.097 -0.929,0.059c-0.473,-0.059 -0.92,0.031 -1.372,0.121c-0.074,0.015 -0.174,0.098 -0.19,0.165c-0.059,0.25 -0.086,0.503 0.023,0.759c0.132,0.308 0.101,0.62 0.011,0.944c-0.1,0.355 -0.174,0.729 -0.081,1.098c0.058,0.233 0.139,0.455 0.136,0.702c-0.001,0.11 0.069,0.225 0.116,0.332c0.012,0.028 0.063,0.055 0.095,0.055c0.522,-0.005 1.043,-0.012 1.564,-0.023c0.32,-0.007 0.359,-0.04 0.396,-0.355c0.013,-0.14 0.071,-0.233 0.237,-0.262l-0.002,-0.001zm3.364,5.031c-0.016,-0.081 -0.028,-0.133 -0.035,-0.186c-0.026,-0.202 -0.077,-0.405 -0.067,-0.605c0.013,-0.288 0.078,-0.573 0.109,-0.861c0.077,-0.702 0.319,-1.384 0.245,-2.105c-0.013,-0.128 -0.04,-0.184 -0.176,-0.183c-0.301,0.004 -0.603,-0.016 -0.903,-0.001c-0.2,0.011 -0.398,0.069 -0.599,0.097c-0.174,0.024 -0.348,0.05 -0.523,0.047c-0.278,-0.005 -0.557,-0.039 -0.837,-0.05c-0.178,-0.007 -0.198,0.026 -0.168,0.198c0.012,0.074 0.042,0.151 0.031,0.222c-0.012,0.077 -0.046,0.19 -0.1,0.211c-0.097,0.039 -0.183,-0.032 -0.221,-0.136c-0.027,-0.075 -0.054,-0.152 -0.074,-0.23c-0.038,-0.144 -0.118,-0.198 -0.273,-0.175c-0.243,0.036 -0.496,0.094 -0.736,0.067c-0.37,-0.042 -0.728,-0.007 -1.091,0.042c-0.313,0.042 -0.328,0.051 -0.394,0.361c-0.007,0.031 -0.012,0.063 -0.013,0.096c-0.022,0.424 -0.043,0.847 -0.063,1.273c-0.011,0.235 -0.039,0.474 -0.024,0.708c0.02,0.338 0.077,0.673 0.11,1.009c0.023,0.222 0.036,0.235 0.253,0.226c0.591,-0.027 1.182,-0.07 1.773,-0.067c0.284,0.001 0.433,-0.09 0.517,-0.355c0.058,-0.186 0.157,-0.358 0.238,-0.537c0.018,0 0.034,-0.001 0.051,-0.001c0.043,0.075 0.098,0.148 0.126,0.229c0.042,0.121 0.059,0.25 0.094,0.375c0.074,0.265 0.16,0.331 0.437,0.331c0.586,0.001 1.173,0.001 1.759,0.001c0.176,0.001 0.354,0.001 0.553,0.001l0.001,-0.002zm-0.362,-12.96c0.187,-0.018 0.348,-0.027 0.507,-0.048c0.047,-0.007 0.125,-0.04 0.129,-0.071c0.02,-0.137 0.051,-0.287 0.018,-0.416c-0.05,-0.195 -0.231,-0.268 -0.414,-0.313c-0.094,-0.023 -0.149,0.003 -0.179,0.102c-0.056,0.184 -0.122,0.366 -0.187,0.547c-0.062,0.169 -0.032,0.207 0.126,0.199zm-6.469,-0.362c-0.179,-0.04 -0.268,0.031 -0.321,0.157c-0.035,0.083 -0.058,0.174 -0.086,0.26c-0.038,0.113 0.098,0.324 0.217,0.327c0.031,0 0.086,-0.036 0.091,-0.063c0.038,-0.226 0.067,-0.453 0.1,-0.681l-0.001,0zm7.177,2.274c0.022,0.005 0.043,0.009 0.065,0.015c0.063,-0.036 0.128,-0.071 0.191,-0.108c0.001,-0.019 0.003,-0.038 0.005,-0.055c-0.083,-0.019 -0.167,-0.038 -0.25,-0.056c-0.005,0.069 -0.008,0.136 -0.011,0.204z" />
 </g>
</svg>