<svg width="32" height="32" xmlns="http://www.w3.org/2000/svg" version="1.1">
 <title>factions-chaos-chaos-legionnaires</title>

 <g>
  <title>Layer 1</title>
  <path id="svg_1" d="m16.101,30.698c-0.264,-1.508 -0.66,-2.564 -0.962,-2.564c-0.113,0 -0.057,-0.226 0.132,-0.49c0.321,-0.49 0.321,-0.509 -0.207,-0.905c-0.283,-0.207 -0.773,-0.622 -1.094,-0.905c-0.302,-0.302 -0.622,-0.528 -0.698,-0.528c-0.094,0 -0.471,0.207 -0.849,0.471c-0.377,0.245 -0.679,0.358 -0.679,0.245c0,-0.396 0.434,-1.659 0.566,-1.659c0.151,0 0.245,-0.415 0.603,-2.414c0.189,-1.131 0.17,-1.207 -0.302,-1.923c-0.453,-0.679 -0.566,-0.754 -1.282,-0.754c-1.414,0 -3.168,1.188 -3.168,2.168c0,0.17 -0.094,0.245 -0.207,0.17c-0.132,-0.075 -0.17,-0.471 -0.132,-1.037c0.132,-1.301 0.905,-2.319 2.263,-3.017c0.622,-0.302 1.15,-0.679 1.226,-0.849c0.057,-0.151 0.245,-0.226 0.415,-0.17c0.453,0.132 1.056,-0.339 0.905,-0.716c-0.057,-0.17 -0.396,-0.377 -0.735,-0.471c-0.453,-0.113 -0.735,-0.358 -0.999,-0.867c-0.358,-0.66 -0.358,-0.716 -0.038,-0.886c0.434,-0.245 0.415,-1.056 -0.038,-1.301c-0.245,-0.113 -0.321,-0.321 -0.264,-0.566c0.075,-0.245 -0.094,-0.603 -0.509,-1.056c-0.585,-0.679 -1.075,-1.697 -0.98,-2.036c0.038,-0.075 -0.019,-0.245 -0.132,-0.377c-0.207,-0.245 -0.453,-1.98 -0.415,-3.036c0,-0.415 0.17,-1.32 0.377,-2.018c0.396,-1.377 0.358,-1.829 -0.226,-2.659l-0.377,-0.547l0.735,0.377c1.377,0.698 1.49,0.962 1.433,3.168c-0.038,1.641 0,2.112 0.321,2.81c0.509,1.169 1.018,1.075 1.075,-0.17c0.019,-0.302 0.189,-0.679 0.377,-0.811c0.321,-0.226 0.396,-0.207 0.622,0.113c0.132,0.226 0.434,0.396 0.66,0.396c0.585,0 1.546,-0.66 2.018,-1.358l0.396,-0.622l1.15,1.094c1.226,1.131 1.508,1.245 2.018,0.792c0.302,-0.264 0.358,-0.226 0.641,0.566c0.377,0.962 0.622,1.037 1.244,0.377c0.415,-0.434 0.453,-0.698 0.566,-2.828c0.094,-2.3 0.113,-2.376 0.66,-2.904c0.321,-0.302 0.867,-0.585 1.226,-0.66l0.66,-0.113l-0.509,0.396c-0.754,0.547 -0.849,1.395 -0.339,3.036c0.585,1.942 0.735,3.036 0.528,4.148c-0.264,1.414 -0.962,2.659 -1.942,3.47c-1.075,0.867 -1.546,1.678 -1.207,2.074c0.113,0.151 0.377,0.264 0.566,0.264c0.207,0 0.358,0.038 0.358,0.094c0,0.264 -0.566,1.414 -0.698,1.433c-0.075,0.019 -0.339,0.057 -0.585,0.075c-0.754,0.075 -0.943,0.453 -0.434,0.867c0.245,0.189 0.585,0.358 0.754,0.358c0.189,0 0.528,0.207 0.773,0.471s0.867,0.735 1.358,1.056c0.98,0.641 1.471,1.471 1.471,2.508l0,0.585l-0.49,-0.622c-0.999,-1.282 -3.224,-1.81 -3.997,-0.98c-0.396,0.434 -0.849,2.621 -0.603,2.923c0.207,0.264 0.962,2.508 1.131,3.356l0.151,0.716l-0.566,-0.528l-0.547,-0.528l-0.679,0.377c-0.943,0.528 -1.527,1.32 -1.263,1.754c0.151,0.245 0.151,0.434 -0.057,0.735c-0.151,0.226 -0.415,1.15 -0.603,2.074l-0.339,1.659l-0.226,-1.301l-0.002,0zm0.453,-8.07c0.189,-0.698 0.471,-1.131 0.471,-0.754c0,0.547 0.396,0.151 0.603,-0.603c0.132,-0.509 0.302,-0.792 0.453,-0.735c0.207,0.075 0.226,-0.17 0.113,-2.055c-0.057,-0.679 -0.377,-0.679 -0.547,-0.019l-0.113,0.528l-0.189,-0.528c-0.226,-0.679 -0.434,-0.641 -0.603,0.113l-0.151,0.603l-0.113,-0.735c-0.17,-1.056 -0.585,-1.113 -0.585,-0.075c0,0.585 -0.057,0.735 -0.189,0.528c-0.094,-0.151 -0.189,-0.471 -0.189,-0.698c0,-0.264 -0.113,-0.434 -0.283,-0.434c-0.207,0 -0.283,0.207 -0.302,0.716c0,0.641 -0.019,0.66 -0.207,0.264c-0.283,-0.585 -0.603,-0.415 -0.679,0.339c-0.057,0.453 -0.113,0.566 -0.226,0.377c-0.302,-0.49 -0.415,-0.038 -0.17,0.735c0.245,0.811 0.471,0.999 0.585,0.453c0.038,-0.189 0.17,0.151 0.302,0.754c0.264,1.113 0.49,1.301 0.905,0.754c0.226,-0.302 0.245,-0.302 0.264,0.17c0,1.226 0.528,1.414 0.849,0.302l0.001,0zm-0.66,-7.033c0.189,-0.226 0.283,-0.245 0.396,-0.075c0.17,0.302 0.735,0.075 0.735,-0.302c0,-0.471 -0.547,-1.414 -0.83,-1.414c-0.339,0 -0.792,0.566 -0.943,1.188c-0.189,0.83 0.17,1.169 0.641,0.603l0.001,0zm-1.999,-1.904c0.528,-0.207 0.339,-0.735 -0.358,-1.075c-0.886,-0.415 -1.169,-0.396 -1.339,0.094c-0.226,0.698 0.83,1.32 1.697,0.98l0,0.001zm5.544,-0.264c0.49,-0.453 0.528,-0.811 0.132,-1.131c-0.207,-0.17 -0.434,-0.132 -1.056,0.226c-0.962,0.528 -1.113,0.849 -0.509,1.075c0.679,0.283 0.98,0.245 1.433,-0.17z" fill="#000000"/>
 </g>
</svg>